<?xml version="1.0" encoding="UTF-8" standalone="no"?>
<svg
   xmlns:dc="http://purl.org/dc/elements/1.1/"
   xmlns:cc="http://creativecommons.org/ns#"
   xmlns:rdf="http://www.w3.org/1999/02/22-rdf-syntax-ns#"
   xmlns:svg="http://www.w3.org/2000/svg"
   xmlns="http://www.w3.org/2000/svg"
   xmlns:sodipodi="http://sodipodi.sourceforge.net/DTD/sodipodi-0.dtd"
   xmlns:inkscape="http://www.inkscape.org/namespaces/inkscape"
   id="emoji"
   viewBox="0 0 50 50"
   version="1.1"
   sodipodi:docname="confused_face.svg"
   width="50"
   height="50"
   inkscape:version="0.92.2 5c3e80d, 2017-08-06">
  <metadata
     id="metadata22">
    <rdf:RDF>
      <cc:Work
         rdf:about="">
        <dc:format>image/svg+xml</dc:format>
        <dc:type
           rdf:resource="http://purl.org/dc/dcmitype/StillImage" />
        <dc:title></dc:title>
      </cc:Work>
    </rdf:RDF>
  </metadata>
  <defs
     id="defs20" />
  <sodipodi:namedview
     pagecolor="#ffffff"
     bordercolor="#666666"
     borderopacity="1"
     objecttolerance="10"
     gridtolerance="10"
     guidetolerance="10"
     inkscape:pageopacity="0"
     inkscape:pageshadow="2"
     inkscape:window-width="999"
     inkscape:window-height="568"
     id="namedview18"
     showgrid="false"
     inkscape:zoom="3.2777778"
     inkscape:cx="4.8813559"
     inkscape:cy="36"
     inkscape:window-x="0"
     inkscape:window-y="0"
     inkscape:window-maximized="0"
     inkscape:current-layer="emoji" />
  <g
     id="color"
     transform="translate(-11,-11)">
    <path
       d="m 36.2002,13.3163 c -12.5719,0 -22.7998,10.2279 -22.7998,22.7998 0,12.5718 10.2279,22.7998 22.7998,22.7998 C 48.772,58.9159 59,48.6879 59,36.1161 59,23.5442 48.772,13.3163 36.2002,13.3163 Z"
       id="path2"
       inkscape:connector-curvature="0"
       style="fill:#fcea2b" />
  </g>
  <g
     id="hair"
     transform="translate(0,-22)" />
  <g
     id="skin"
     transform="translate(0,-22)" />
  <g
     id="skin-shadow"
     transform="translate(0,-22)" />
  <g
     id="line"
     transform="translate(-11,-11)">
    <circle
       cx="36"
       cy="36"
       r="23"
       stroke-miterlimit="10"
       id="circle8"
       style="fill:none;stroke:#000000;stroke-width:2;stroke-miterlimit:10" />
    <path
       d="M 44.7,43.92 C 38.372,42.184 33.29,43.014 27.3,45.822"
       id="path10"
       inkscape:connector-curvature="0"
       style="fill:none;stroke:#000000;stroke-width:2;stroke-linecap:round;stroke-linejoin:round" />
    <path
       d="m 30,31 c 0,1.6568 -1.3448,3 -3,3 -1.6553,0 -3,-1.3433 -3,-3 0,-1.6552 1.3447,-3 3,-3 1.6552,0 3,1.3448 3,3"
       id="path12"
       inkscape:connector-curvature="0" />
    <path
       d="m 48,31 c 0,1.6568 -1.3447,3 -3,3 -1.6553,0 -3,-1.3433 -3,-3 0,-1.6552 1.3447,-3 3,-3 1.6553,0 3,1.3448 3,3"
       id="path14"
       inkscape:connector-curvature="0" />
  </g>
</svg>
