<?xml version="1.0" encoding="UTF-8" standalone="no"?>
<svg
   xmlns:dc="http://purl.org/dc/elements/1.1/"
   xmlns:cc="http://creativecommons.org/ns#"
   xmlns:rdf="http://www.w3.org/1999/02/22-rdf-syntax-ns#"
   xmlns:svg="http://www.w3.org/2000/svg"
   xmlns="http://www.w3.org/2000/svg"
   xmlns:sodipodi="http://sodipodi.sourceforge.net/DTD/sodipodi-0.dtd"
   xmlns:inkscape="http://www.inkscape.org/namespaces/inkscape"
   id="emoji"
   viewBox="0 0 62 62"
   version="1.1"
   sodipodi:docname="face_with_symbols_on_mouth.svg"
   width="62"
   height="62"
   inkscape:version="0.92.2 5c3e80d, 2017-08-06">
  <metadata
     id="metadata40">
    <rdf:RDF>
      <cc:Work
         rdf:about="">
        <dc:format>image/svg+xml</dc:format>
        <dc:type
           rdf:resource="http://purl.org/dc/dcmitype/StillImage" />
        <dc:title></dc:title>
      </cc:Work>
    </rdf:RDF>
  </metadata>
  <defs
     id="defs38" />
  <sodipodi:namedview
     pagecolor="#ffffff"
     bordercolor="#666666"
     borderopacity="1"
     objecttolerance="10"
     gridtolerance="10"
     guidetolerance="10"
     inkscape:pageopacity="0"
     inkscape:pageshadow="2"
     inkscape:window-width="795"
     inkscape:window-height="480"
     id="namedview36"
     showgrid="false"
     inkscape:zoom="3.2777778"
     inkscape:cx="36"
     inkscape:cy="36"
     inkscape:window-x="714"
     inkscape:window-y="122"
     inkscape:window-maximized="0"
     inkscape:current-layer="emoji" />
  <g
     id="color"
     transform="translate(-6.4067797,-4.8135592)">
    <path
       d="M 36,13 C 23.3177,13 13,23.3177 13,36 13,48.6822 23.3177,59 36,59 48.6822,59 59,48.6823 59,36 59,23.3177 48.6822,13 36,13 Z"
       id="path2"
       inkscape:connector-curvature="0"
       style="fill:#fcea2b" />
    <path
       d="m 40.9453,46.6999 h -9.8906 c -1.28,0 -2.3272,-1.4849 -2.3272,-3.2999 v 0 c 0,-1.8149 1.0472,-3.2999 2.3272,-3.2999 h 9.8906 c 1.28,0 2.3272,1.4849 2.3272,3.2999 v 0 c 0,1.8149 -1.0472,3.2999 -2.3272,3.2999 z"
       id="path4"
       inkscape:connector-curvature="0"
       style="fill:#ffffff" />
  </g>
  <g
     id="hair"
     transform="translate(0,-10)" />
  <g
     id="skin"
     transform="translate(0,-10)" />
  <g
     id="skin-shadow"
     transform="translate(0,-10)" />
  <g
     id="line"
     transform="translate(-6.4067797,-4.8135592)">
    <circle
       cx="36"
       cy="36"
       r="23"
       stroke-miterlimit="10"
       id="circle10"
       style="fill:none;stroke:#000000;stroke-width:2;stroke-miterlimit:10" />
    <path
       d="m 30,31.9252 c 0,1.6567 -1.3448,3 -3,3 -1.6553,0 -3,-1.3433 -3,-3 0,-1.6552 1.3447,-3 3,-3 1.6552,0 3,1.3447 3,3"
       id="path12"
       inkscape:connector-curvature="0" />
    <path
       d="m 48,31.9252 c 0,1.6567 -1.3447,3 -3,3 -1.6553,0 -3,-1.3433 -3,-3 0,-1.6552 1.3447,-3 3,-3 1.6553,0 3,1.3447 3,3"
       id="path14"
       inkscape:connector-curvature="0" />
    <path
       stroke-miterlimit="2"
       d="m 40.9453,46.6999 h -9.8906 c -1.28,0 -2.3272,-1.4849 -2.3272,-3.2999 v 0 c 0,-1.8149 1.0472,-3.2999 2.3272,-3.2999 h 9.8906 c 1.28,0 2.3272,1.4849 2.3272,3.2999 v 0 c 0,1.8149 -1.0472,3.2999 -2.3272,3.2999 z"
       id="path16"
       inkscape:connector-curvature="0"
       style="fill:none;stroke:#000000;stroke-width:2;stroke-miterlimit:2" />
    <line
       x1="23"
       x2="30"
       y1="23.1126"
       y2="27.1126"
       stroke-miterlimit="10"
       id="line18"
       style="fill:none;stroke:#000000;stroke-width:2;stroke-linecap:round;stroke-linejoin:round;stroke-miterlimit:10" />
    <line
       x1="49"
       x2="42"
       y1="23.1126"
       y2="27.1126"
       stroke-miterlimit="10"
       id="line20"
       style="fill:none;stroke:#000000;stroke-width:2;stroke-linecap:round;stroke-linejoin:round;stroke-miterlimit:10" />
    <line
       x1="55.295502"
       x2="55.295502"
       y1="8.8291998"
       y2="13.1531"
       stroke-miterlimit="10"
       id="line22"
       style="fill:none;stroke:#000000;stroke-width:2;stroke-linecap:round;stroke-linejoin:round;stroke-miterlimit:10" />
    <circle
       cx="55.295502"
       cy="15.8292"
       r="1"
       id="circle24" />
    <line
       x1="62.3172"
       x2="61.252602"
       y1="16.829201"
       y2="23.829201"
       stroke-miterlimit="10"
       id="line26"
       style="fill:none;stroke:#000000;stroke-width:2;stroke-linecap:round;stroke-linejoin:round;stroke-miterlimit:10" />
    <line
       x1="65.432999"
       x2="64.368401"
       y1="16.829201"
       y2="23.829201"
       stroke-miterlimit="10"
       id="line28"
       style="fill:none;stroke:#000000;stroke-width:2;stroke-linecap:round;stroke-linejoin:round;stroke-miterlimit:10" />
    <line
       x1="60.035301"
       x2="67.115799"
       y1="18.7792"
       y2="18.7722"
       stroke-miterlimit="10"
       id="line30"
       style="fill:none;stroke:#000000;stroke-width:2;stroke-linecap:round;stroke-linejoin:round;stroke-miterlimit:10" />
    <line
       x1="59.569801"
       x2="66.650299"
       y1="21.8601"
       y2="21.853001"
       stroke-miterlimit="10"
       id="line32"
       style="fill:none;stroke:#000000;stroke-width:2;stroke-linecap:round;stroke-linejoin:round;stroke-miterlimit:10" />
  </g>
</svg>
