<?xml version="1.0" encoding="UTF-8" standalone="no"?>
<svg
   xmlns:dc="http://purl.org/dc/elements/1.1/"
   xmlns:cc="http://creativecommons.org/ns#"
   xmlns:rdf="http://www.w3.org/1999/02/22-rdf-syntax-ns#"
   xmlns:svg="http://www.w3.org/2000/svg"
   xmlns="http://www.w3.org/2000/svg"
   xmlns:sodipodi="http://sodipodi.sourceforge.net/DTD/sodipodi-0.dtd"
   xmlns:inkscape="http://www.inkscape.org/namespaces/inkscape"
   id="emoji"
   viewBox="0 0 54 54"
   version="1.1"
   sodipodi:docname="face_blowing_a_kiss.svg"
   width="54"
   height="54"
   inkscape:version="0.92.2 5c3e80d, 2017-08-06">
  <metadata
     id="metadata32">
    <rdf:RDF>
      <cc:Work
         rdf:about="">
        <dc:format>image/svg+xml</dc:format>
        <dc:type
           rdf:resource="http://purl.org/dc/dcmitype/StillImage" />
        <dc:title></dc:title>
      </cc:Work>
    </rdf:RDF>
  </metadata>
  <defs
     id="defs30" />
  <sodipodi:namedview
     pagecolor="#ffffff"
     bordercolor="#666666"
     borderopacity="1"
     objecttolerance="10"
     gridtolerance="10"
     guidetolerance="10"
     inkscape:pageopacity="0"
     inkscape:pageshadow="2"
     inkscape:window-width="795"
     inkscape:window-height="480"
     id="namedview28"
     showgrid="false"
     inkscape:zoom="3.2777778"
     inkscape:cx="36"
     inkscape:cy="36"
     inkscape:window-x="0"
     inkscape:window-y="0"
     inkscape:window-maximized="0"
     inkscape:current-layer="emoji" />
  <g
     id="color"
     transform="translate(-9,-9)">
    <circle
       cx="36"
       cy="36"
       r="24"
       id="circle2"
       style="fill:#fcea2b" />
    <path
       d="m 53.0134,44.4703 c -1.9101,-0.5703 -3.9277,0.5201 -4.498,2.4301 -0.1899,0.6362 -0.2018,1.3099 -0.0342,1.948 l 0.111,0.3522 3.797,9.7215 8.5568,-6.0862 c 0.6097,-0.4613 1.0532,-1.1008 1.275,-1.8435 0.5703,-1.91 -0.5199,-3.9283 -2.4306,-4.4987 -1.3381,-0.3995 -2.7576,-0.0041 -3.7038,1.0317 -0.0808,0.0887 -0.2057,0.1237 -0.3214,0.0892 -0.1151,-0.0344 -0.2004,-0.1321 -0.2199,-0.2508 -0.2229,-1.3849 -1.1932,-2.4938 -2.5319,-2.8935 z"
       id="path4"
       inkscape:connector-curvature="0"
       style="fill:#d22f27" />
  </g>
  <g
     id="hair"
     transform="translate(0,-18)" />
  <g
     id="skin"
     transform="translate(0,-18)" />
  <g
     id="skin-shadow"
     transform="translate(0,-18)" />
  <g
     id="line"
     transform="translate(-9,-9)">
    <path
       stroke-miterlimit="10"
       d="M 48.8645,47.3785"
       id="path10"
       inkscape:connector-curvature="0"
       style="fill:none;stroke:#000000;stroke-width:2;stroke-linecap:round;stroke-linejoin:round;stroke-miterlimit:10" />
    <path
       stroke-miterlimit="10"
       d="m 20.5907,30.0053 c 0.4075,-1.5078 1.358,-2.8098 2.6702,-3.656 1.2228,-0.9847 2.769,-1.4753 4.3352,-1.3805"
       id="path12"
       inkscape:connector-curvature="0"
       style="fill:none;stroke:#000000;stroke-width:2;stroke-linecap:round;stroke-linejoin:round;stroke-miterlimit:10" />
    <path
       stroke-miterlimit="10"
       d="M 51.0599,31.0689 C 48.7901,28.8246 45.3111,28.3458 42.5192,29.8937"
       id="path14"
       inkscape:connector-curvature="0"
       style="fill:none;stroke:#000000;stroke-width:2;stroke-linecap:round;stroke-linejoin:round;stroke-miterlimit:10" />
    <path
       stroke-miterlimit="10"
       d="M 47.0437,35.8599 C 46.2372,35.389 45.2689,34.9511 44.1634,34.9336 43.0437,34.9159 42.0385,35.2434 40.972,35.7118"
       id="path16"
       inkscape:connector-curvature="0"
       style="fill:none;stroke:#000000;stroke-width:2;stroke-linecap:round;stroke-linejoin:round;stroke-miterlimit:10" />
    <path
       stroke-miterlimit="10"
       d="M 58.3718,41.3612 C 58.7825,39.6411 59,37.8459 59,36 59,23.2969 48.7022,13 36,13 23.2969,13 13,23.2969 13,36 c 0,12.7022 10.2969,23 23,23 3.6206,0 7.0459,-0.8367 10.093,-2.3272"
       id="path18"
       inkscape:connector-curvature="0"
       style="fill:none;stroke:#000000;stroke-width:2;stroke-linecap:round;stroke-linejoin:round;stroke-miterlimit:10" />
    <circle
       cx="28.0396"
       cy="35.306301"
       r="3"
       id="circle20" />
    <path
       stroke-miterlimit="10"
       d="m 36.4141,41.091 c 0,0 10.5248,3.1956 0,5.5637 0,0 10.4577,2.9883 0,4.9125"
       id="path22"
       inkscape:connector-curvature="0"
       style="fill:none;stroke:#000000;stroke-width:2;stroke-linecap:round;stroke-linejoin:round;stroke-miterlimit:10" />
    <path
       stroke-miterlimit="10"
       d="m 53.0134,44.4703 c -1.9101,-0.5703 -3.9277,0.5201 -4.498,2.4301 -0.1899,0.6362 -0.2018,1.3099 -0.0342,1.948 l 0.111,0.3522 3.797,9.7215 8.5568,-6.0862 c 0.6097,-0.4613 1.0532,-1.1008 1.275,-1.8435 0.5703,-1.91 -0.5199,-3.9283 -2.4306,-4.4987 -1.3381,-0.3995 -2.7576,-0.0041 -3.7038,1.0317 -0.0808,0.0887 -0.2057,0.1237 -0.3214,0.0892 -0.1151,-0.0344 -0.2004,-0.1321 -0.2199,-0.2508 -0.2229,-1.3849 -1.1932,-2.4938 -2.5319,-2.8935 z"
       id="path24"
       inkscape:connector-curvature="0"
       style="fill:none;stroke:#000000;stroke-width:2;stroke-linecap:round;stroke-linejoin:round;stroke-miterlimit:10" />
  </g>
</svg>
