<?xml version="1.0" encoding="UTF-8" standalone="no"?>
<svg
   xmlns:dc="http://purl.org/dc/elements/1.1/"
   xmlns:cc="http://creativecommons.org/ns#"
   xmlns:rdf="http://www.w3.org/1999/02/22-rdf-syntax-ns#"
   xmlns:svg="http://www.w3.org/2000/svg"
   xmlns="http://www.w3.org/2000/svg"
   xmlns:sodipodi="http://sodipodi.sourceforge.net/DTD/sodipodi-0.dtd"
   xmlns:inkscape="http://www.inkscape.org/namespaces/inkscape"
   id="emoji"
   viewBox="0 0 50 50"
   version="1.1"
   sodipodi:docname="grinning_face_with_sweat.svg"
   width="50"
   height="50"
   inkscape:version="0.92.2 5c3e80d, 2017-08-06">
  <metadata
     id="metadata32">
    <rdf:RDF>
      <cc:Work
         rdf:about="">
        <dc:format>image/svg+xml</dc:format>
        <dc:type
           rdf:resource="http://purl.org/dc/dcmitype/StillImage" />
        <dc:title></dc:title>
      </cc:Work>
    </rdf:RDF>
  </metadata>
  <defs
     id="defs30" />
  <sodipodi:namedview
     pagecolor="#ffffff"
     bordercolor="#666666"
     borderopacity="1"
     objecttolerance="10"
     gridtolerance="10"
     guidetolerance="10"
     inkscape:pageopacity="0"
     inkscape:pageshadow="2"
     inkscape:window-width="795"
     inkscape:window-height="480"
     id="namedview28"
     showgrid="false"
     inkscape:zoom="3.2777778"
     inkscape:cx="36"
     inkscape:cy="36"
     inkscape:window-x="0"
     inkscape:window-y="0"
     inkscape:window-maximized="0"
     inkscape:current-layer="emoji" />
  <g
     id="color"
     transform="translate(-11,-11)">
    <circle
       cx="36"
       cy="36"
       r="24"
       id="circle2"
       style="fill:#fcea2b" />
    <path
       d="m 54.25,28.1758 a 4.2422,4.2422 0 0 1 -4.2442,-4.2427 c 0,-4.2026 4.211,-8.4619 4.253,-8.5044 0.1543,0.1729 4.2343,4.3228 4.2343,8.5039 A 4.241,4.241 0 0 1 54.25,28.1758 Z"
       id="path4"
       inkscape:connector-curvature="0"
       style="fill:#92d3f5" />
    <path
       d="m 50.595,41.64 a 11.5554,11.5554 0 0 1 -0.87,4.49 C 37.235,49.16 24.295,46.47 22.235,46 a 11.4347,11.4347 0 0 1 -0.83,-4.36 h 0.11 c 0,0 14.8,3.59 28.89,0.07 z"
       id="path6"
       inkscape:connector-curvature="0"
       style="fill:#ffffff" />
    <path
       d="m 49.7251,46.13 c -1.79,4.27 -6.35,7.23 -13.69,7.23 -7.41,0 -12.03,-3.03 -13.8,-7.36 2.06,0.47 14.9999,3.16 27.49,0.13 z"
       id="path8"
       inkscape:connector-curvature="0"
       style="fill:#ea5a47" />
  </g>
  <g
     id="hair"
     transform="translate(0,-22)" />
  <g
     id="skin"
     transform="translate(0,-22)" />
  <g
     id="skin-shadow"
     transform="translate(0,-22)" />
  <g
     id="line"
     transform="translate(-11,-11)">
    <path
       d="m 54.25,28.1758 a 4.2422,4.2422 0 0 1 -4.2442,-4.2427 c 0,-4.2026 4.211,-8.4619 4.253,-8.5044 0.1543,0.1729 4.2343,4.3228 4.2343,8.5039 A 4.241,4.241 0 0 1 54.25,28.1758 Z"
       id="path14"
       inkscape:connector-curvature="0"
       style="fill:none;stroke:#000000;stroke-width:2;stroke-linejoin:round" />
    <path
       d="M 48.0945,16.433 A 22.9582,22.9582 0 1 0 58.4938,31.1785"
       id="path16"
       inkscape:connector-curvature="0"
       style="fill:none;stroke:#000000;stroke-width:2;stroke-linecap:round;stroke-linejoin:round" />
    <path
       d="m 50.595,41.64 a 11.5554,11.5554 0 0 1 -0.87,4.49 C 37.235,49.16 24.295,46.47 22.235,46 a 11.4347,11.4347 0 0 1 -0.83,-4.36 h 0.11 c 0,0 14.8,3.59 28.89,0.07 z"
       id="path18"
       inkscape:connector-curvature="0"
       style="fill:none;stroke:#000000;stroke-width:2;stroke-linecap:round;stroke-linejoin:round" />
    <path
       d="m 49.7251,46.13 c -1.79,4.27 -6.35,7.23 -13.69,7.23 -7.41,0 -12.03,-3.03 -13.8,-7.36 2.06,0.47 14.9999,3.16 27.49,0.13 z"
       id="path20"
       inkscape:connector-curvature="0"
       style="fill:none;stroke:#000000;stroke-width:2;stroke-linecap:round;stroke-linejoin:round" />
    <path
       stroke-miterlimit="10"
       d="m 31.6941,33.4036 a 4.7262,4.7262 0 0 0 -8.6382,0"
       id="path22"
       inkscape:connector-curvature="0"
       style="fill:none;stroke:#000000;stroke-width:2;stroke-linecap:round;stroke-miterlimit:10" />
    <path
       stroke-miterlimit="10"
       d="m 48.9441,33.4036 a 4.7262,4.7262 0 0 0 -8.6382,0"
       id="path24"
       inkscape:connector-curvature="0"
       style="fill:none;stroke:#000000;stroke-width:2;stroke-linecap:round;stroke-miterlimit:10" />
  </g>
</svg>
