<?xml version="1.0" encoding="UTF-8" standalone="no"?>
<svg
   xmlns:dc="http://purl.org/dc/elements/1.1/"
   xmlns:cc="http://creativecommons.org/ns#"
   xmlns:rdf="http://www.w3.org/1999/02/22-rdf-syntax-ns#"
   xmlns:svg="http://www.w3.org/2000/svg"
   xmlns="http://www.w3.org/2000/svg"
   xmlns:sodipodi="http://sodipodi.sourceforge.net/DTD/sodipodi-0.dtd"
   xmlns:inkscape="http://www.inkscape.org/namespaces/inkscape"
   id="emoji"
   viewBox="0 0 50 50"
   version="1.1"
   sodipodi:docname="grinning_squinting_face.svg"
   width="50"
   height="50"
   inkscape:version="0.92.2 5c3e80d, 2017-08-06">
  <metadata
     id="metadata28">
    <rdf:RDF>
      <cc:Work
         rdf:about="">
        <dc:format>image/svg+xml</dc:format>
        <dc:type
           rdf:resource="http://purl.org/dc/dcmitype/StillImage" />
        <dc:title></dc:title>
      </cc:Work>
    </rdf:RDF>
  </metadata>
  <defs
     id="defs26" />
  <sodipodi:namedview
     pagecolor="#ffffff"
     bordercolor="#666666"
     borderopacity="1"
     objecttolerance="10"
     gridtolerance="10"
     guidetolerance="10"
     inkscape:pageopacity="0"
     inkscape:pageshadow="2"
     inkscape:window-width="795"
     inkscape:window-height="480"
     id="namedview24"
     showgrid="false"
     inkscape:zoom="3.2777778"
     inkscape:cx="36"
     inkscape:cy="36"
     inkscape:window-x="794"
     inkscape:window-y="190"
     inkscape:window-maximized="0"
     inkscape:current-layer="emoji" />
  <g
     id="color"
     transform="translate(-11,-11)">
    <circle
       cx="36"
       cy="36"
       r="23"
       id="circle2"
       style="fill:#fcea2b" />
    <path
       d="m 50.595,41.64 a 11.5554,11.5554 0 0 1 -0.87,4.49 C 37.235,49.16 24.295,46.47 22.235,46 a 11.4347,11.4347 0 0 1 -0.83,-4.36 h 0.11 c 0,0 14.8,3.59 28.89,0.07 z"
       id="path4"
       inkscape:connector-curvature="0"
       style="fill:#ffffff" />
    <path
       d="m 49.7251,46.13 c -1.79,4.27 -6.35,7.23 -13.69,7.23 -7.41,0 -12.03,-3.03 -13.8,-7.36 2.06,0.47 14.9999,3.16 27.49,0.13 z"
       id="path6"
       inkscape:connector-curvature="0"
       style="fill:#ea5a47" />
  </g>
  <g
     id="hair"
     transform="translate(-11.1,-11)" />
  <g
     id="skin"
     transform="translate(-11.1,-11)" />
  <g
     id="skin-shadow"
     transform="translate(-11.1,-11)" />
  <g
     id="line"
     transform="translate(-11,-11)">
    <polyline
       points="25.168 27.413 31.755 31.427 25.168 35.165"
       id="polyline12"
       style="fill:none;stroke:#000000;stroke-width:2;stroke-linecap:round;stroke-linejoin:round" />
    <polyline
       points="46.832 27.413 40.245 31.427 46.832 35.165"
       id="polyline14"
       style="fill:none;stroke:#000000;stroke-width:2;stroke-linecap:round;stroke-linejoin:round" />
    <circle
       cx="36"
       cy="36"
       r="23"
       id="circle16"
       style="fill:none;stroke:#000000;stroke-width:2;stroke-linecap:round;stroke-linejoin:round" />
    <path
       d="m 50.595,41.64 a 11.5554,11.5554 0 0 1 -0.87,4.49 C 37.235,49.16 24.295,46.47 22.235,46 a 11.4347,11.4347 0 0 1 -0.83,-4.36 h 0.11 c 0,0 14.8,3.59 28.89,0.07 z"
       id="path18"
       inkscape:connector-curvature="0"
       style="fill:none;stroke:#000000;stroke-width:2;stroke-linecap:round;stroke-linejoin:round" />
    <path
       d="m 49.7251,46.13 c -1.79,4.27 -6.35,7.23 -13.69,7.23 -7.41,0 -12.03,-3.03 -13.8,-7.36 2.06,0.47 14.9999,3.16 27.49,0.13 z"
       id="path20"
       inkscape:connector-curvature="0"
       style="fill:none;stroke:#000000;stroke-width:2;stroke-linecap:round;stroke-linejoin:round" />
  </g>
</svg>
