<?xml version="1.0" encoding="UTF-8" standalone="no"?>
<svg
   xmlns:dc="http://purl.org/dc/elements/1.1/"
   xmlns:cc="http://creativecommons.org/ns#"
   xmlns:rdf="http://www.w3.org/1999/02/22-rdf-syntax-ns#"
   xmlns:svg="http://www.w3.org/2000/svg"
   xmlns="http://www.w3.org/2000/svg"
   xmlns:sodipodi="http://sodipodi.sourceforge.net/DTD/sodipodi-0.dtd"
   xmlns:inkscape="http://www.inkscape.org/namespaces/inkscape"
   id="emoji"
   viewBox="0 0 50 50"
   version="1.1"
   sodipodi:docname="nerd_face.svg"
   width="50"
   height="50"
   inkscape:version="0.92.2 5c3e80d, 2017-08-06">
  <metadata
     id="metadata44">
    <rdf:RDF>
      <cc:Work
         rdf:about="">
        <dc:format>image/svg+xml</dc:format>
        <dc:type
           rdf:resource="http://purl.org/dc/dcmitype/StillImage" />
        <dc:title></dc:title>
      </cc:Work>
    </rdf:RDF>
  </metadata>
  <defs
     id="defs42" />
  <sodipodi:namedview
     pagecolor="#ffffff"
     bordercolor="#666666"
     borderopacity="1"
     objecttolerance="10"
     gridtolerance="10"
     guidetolerance="10"
     inkscape:pageopacity="0"
     inkscape:pageshadow="2"
     inkscape:window-width="795"
     inkscape:window-height="480"
     id="namedview40"
     showgrid="false"
     inkscape:zoom="3.2777778"
     inkscape:cx="36"
     inkscape:cy="36"
     inkscape:window-x="868"
     inkscape:window-y="206"
     inkscape:window-maximized="0"
     inkscape:current-layer="emoji" />
  <g
     id="color"
     transform="translate(-11,-11)">
    <circle
       cx="36"
       cy="36"
       r="23"
       id="circle2"
       style="fill:#fcea2b" />
    <path
       d="m 32.1434,47.3742 c -0.282,1.7234 -0.4344,5.4883 3.8566,4.64 v -4.3697"
       id="path4"
       inkscape:connector-curvature="0"
       style="fill:#ffffff" />
    <path
       d="m 39.8566,47.3742 c 0.282,1.7234 0.4344,5.4883 -3.8566,4.64 v -4.3697"
       id="path6"
       inkscape:connector-curvature="0"
       style="fill:#ffffff" />
  </g>
  <g
     id="hair"
     transform="translate(0,-22)" />
  <g
     id="skin"
     transform="translate(0,-22)" />
  <g
     id="skin-shadow"
     transform="translate(0,-22)" />
  <g
     id="line"
     transform="translate(-11,-11)">
    <circle
       cx="36"
       cy="36"
       r="23"
       stroke-miterlimit="10"
       id="circle12"
       style="fill:none;stroke:#000000;stroke-width:2;stroke-linecap:round;stroke-linejoin:round;stroke-miterlimit:10" />
    <path
       stroke-miterlimit="10"
       d="m 19.074,30.4073 c 0,0 -0.953,8.5508 6.8608,7.9185 2.6197,-0.212 7.8164,-0.6507 7.867,-8.3427 0.0046,-0.6979 -0.0078,-1.5989 -0.8108,-2.6298 -1.0647,-1.3669 -3.5716,-1.9711 -9.9446,-1.422 1e-4,10e-5 -3.4462,-0.099 -3.9724,4.476 z"
       id="path14"
       inkscape:connector-curvature="0"
       style="fill:none;stroke:#000000;stroke-width:2;stroke-linecap:round;stroke-linejoin:round;stroke-miterlimit:10" />
    <polyline
       stroke-miterlimit="10"
       points="19.1447,29.8742 18.7117,26.5029 22.5446,25.9752"
       id="polyline16"
       style="fill:none;stroke:#000000;stroke-width:2;stroke-linecap:round;stroke-linejoin:round;stroke-miterlimit:10" />
    <path
       stroke-miterlimit="10"
       d="m 52.9325,30.4073 c 0,0 0.953,8.5508 -6.8608,7.9185 -2.6197,-0.212 -7.8164,-0.6507 -7.867,-8.3427 -0.0046,-0.6979 0.0078,-1.5989 0.8108,-2.6298 1.0647,-1.3669 3.5716,-1.9711 9.9446,-1.422 0,10e-5 3.4463,-0.099 3.9724,4.476 z"
       id="path18"
       inkscape:connector-curvature="0"
       style="fill:none;stroke:#000000;stroke-width:2;stroke-linecap:round;stroke-linejoin:round;stroke-miterlimit:10" />
    <path
       stroke-miterlimit="10"
       d="m 31.6962,26.3593 c 0,0 4.1241,2.5339 8.6569,0"
       id="path20"
       inkscape:connector-curvature="0"
       style="fill:none;stroke:#000000;stroke-width:2;stroke-linecap:round;stroke-linejoin:round;stroke-miterlimit:10" />
    <path
       stroke-miterlimit="10"
       d="m 33.8022,31.2614 c 0,0 2.1275,-3.7509 4.383,0"
       id="path22"
       inkscape:connector-curvature="0"
       style="fill:none;stroke:#000000;stroke-width:2;stroke-linecap:round;stroke-linejoin:round;stroke-miterlimit:10" />
    <polyline
       stroke-miterlimit="10"
       points="52.8552,29.8767 53.2883,26.5054 49.4554,25.9777"
       id="polyline24"
       style="fill:none;stroke:#000000;stroke-width:2;stroke-linecap:round;stroke-linejoin:round;stroke-miterlimit:10" />
    <path
       stroke-miterlimit="10"
       d="m 34.1463,29.9706 c 0,0 1.7954,-3.7509 3.6988,0"
       id="path26"
       inkscape:connector-curvature="0"
       style="fill:none;stroke:#000000;stroke-width:2;stroke-linecap:round;stroke-linejoin:round;stroke-miterlimit:10" />
    <path
       stroke-miterlimit="10"
       d="m 32.1434,47.3742 c -0.282,1.7234 -0.4344,5.4883 3.8566,4.64 v -4.3697"
       id="path28"
       inkscape:connector-curvature="0"
       style="fill:none;stroke:#000000;stroke-width:2;stroke-miterlimit:10" />
    <path
       d="m 30,31 c 0,1.6568 -1.3448,3 -3,3 -1.6553,0 -3,-1.3433 -3,-3 0,-1.6552 1.3447,-3 3,-3 1.6552,0 3,1.3448 3,3"
       id="path30"
       inkscape:connector-curvature="0" />
    <path
       d="m 48,31 c 0,1.6568 -1.3447,3 -3,3 -1.6553,0 -3,-1.3433 -3,-3 0,-1.6552 1.3447,-3 3,-3 1.6553,0 3,1.3448 3,3"
       id="path32"
       inkscape:connector-curvature="0" />
    <path
       stroke-miterlimit="10"
       d="m 39.8566,47.3742 c 0.282,1.7234 0.4344,5.4883 -3.8566,4.64 v -4.3697"
       id="path34"
       inkscape:connector-curvature="0"
       style="fill:none;stroke:#000000;stroke-width:2;stroke-miterlimit:10" />
    <path
       stroke-miterlimit="10"
       d="m 45.8148,44.8055 c -6.574,3.5248 -14.0454,3.6576 -19.6295,0"
       id="path36"
       inkscape:connector-curvature="0"
       style="fill:none;stroke:#000000;stroke-width:2;stroke-linecap:round;stroke-linejoin:round;stroke-miterlimit:10" />
  </g>
</svg>
