<?xml version="1.0" encoding="UTF-8" standalone="no"?>
<svg
   xmlns:dc="http://purl.org/dc/elements/1.1/"
   xmlns:cc="http://creativecommons.org/ns#"
   xmlns:rdf="http://www.w3.org/1999/02/22-rdf-syntax-ns#"
   xmlns:svg="http://www.w3.org/2000/svg"
   xmlns="http://www.w3.org/2000/svg"
   xmlns:sodipodi="http://sodipodi.sourceforge.net/DTD/sodipodi-0.dtd"
   xmlns:inkscape="http://www.inkscape.org/namespaces/inkscape"
   id="emoji"
   viewBox="0 0 50 50"
   version="1.1"
   sodipodi:docname="smiling_face_with_sunglasses.svg"
   width="50"
   height="50"
   inkscape:version="0.92.2 5c3e80d, 2017-08-06">
  <metadata
     id="metadata42">
    <rdf:RDF>
      <cc:Work
         rdf:about="">
        <dc:format>image/svg+xml</dc:format>
        <dc:type
           rdf:resource="http://purl.org/dc/dcmitype/StillImage" />
        <dc:title></dc:title>
      </cc:Work>
    </rdf:RDF>
  </metadata>
  <defs
     id="defs40" />
  <sodipodi:namedview
     pagecolor="#ffffff"
     bordercolor="#666666"
     borderopacity="1"
     objecttolerance="10"
     gridtolerance="10"
     guidetolerance="10"
     inkscape:pageopacity="0"
     inkscape:pageshadow="2"
     inkscape:window-width="1828"
     inkscape:window-height="1096"
     id="namedview38"
     showgrid="false"
     inkscape:zoom="3.2777778"
     inkscape:cx="36"
     inkscape:cy="36"
     inkscape:window-x="0"
     inkscape:window-y="0"
     inkscape:window-maximized="0"
     inkscape:current-layer="emoji" />
  <g
     id="color"
     transform="translate(-11,-11)">
    <circle
       cx="36"
       cy="36"
       r="23"
       id="circle2"
       style="fill:#fcea2b" />
    <path
       d="m 45.331,38.5639 c 3.9628,0 7.1782,-2.8618 7.1782,-6.3889 0,-1.7646 0.4473,-3.5291 -0.8519,-4.6852 -1.2992,-1.1561 -4.3449,-1.7037 -6.3264,-1.7037 -2.3567,0 -5.1428,0.1434 -6.4514,1.7037 -0.8933,1.0652 -0.7268,3.2534 -0.7268,4.6852 10e-5,3.5271 3.2128,6.3889 7.1783,6.3889 z"
       id="path4"
       inkscape:connector-curvature="0"
       style="fill:#3f3f3f" />
    <path
       d="m 25.7384,38.5639 c 3.9628,0 7.1782,-2.8618 7.1782,-6.3889 0,-1.7646 0.4473,-3.5291 -0.8519,-4.6852 -1.2992,-1.1561 -4.3449,-1.7037 -6.3264,-1.7037 -2.3567,0 -5.1428,0.1434 -6.4514,1.7037 -0.8933,1.0652 -0.7268,3.2534 -0.7268,4.6852 10e-5,3.5271 3.2128,6.3889 7.1783,6.3889 z"
       id="path6"
       inkscape:connector-curvature="0"
       style="fill:#3f3f3f" />
    <path
       stroke-miterlimit="10"
       d="M 33.8155,35.6315"
       id="path8"
       inkscape:connector-curvature="0"
       style="fill:#9b9b9a;stroke:#9b9b9a;stroke-width:2;stroke-miterlimit:10" />
  </g>
  <g
     id="hair"
     transform="translate(0,-22)" />
  <g
     id="skin"
     transform="translate(0,-22)" />
  <g
     id="skin-shadow"
     transform="translate(0,-22)" />
  <g
     id="line"
     transform="translate(-10.8871,-11.056499)">
    <circle
       cx="35.8871"
       cy="36.056499"
       r="23"
       stroke-miterlimit="10"
       id="circle14"
       style="fill:none;stroke:#000000;stroke-width:2;stroke-linecap:round;stroke-linejoin:round;stroke-miterlimit:10" />
    <path
       stroke-miterlimit="10"
       d="m 45.7019,44.862 c -6.574,3.5248 -14.0454,3.6576 -19.6295,0"
       id="path16"
       inkscape:connector-curvature="0"
       style="fill:none;stroke:#000000;stroke-width:2;stroke-linecap:round;stroke-linejoin:round;stroke-miterlimit:10" />
    <path
       stroke-miterlimit="10"
       d="m 18.8826,30.4638 c 0,0 -0.953,8.5508 6.8608,7.9185 2.6197,-0.212 7.8164,-0.6507 7.867,-8.3427 0.0046,-0.6979 -0.0078,-1.5989 -0.8108,-2.6298 -1.0647,-1.3669 -3.5716,-1.9711 -9.9446,-1.422 10e-5,10e-5 -3.4462,-0.099 -3.9724,4.476 z"
       id="path18"
       inkscape:connector-curvature="0"
       style="fill:none;stroke:#000000;stroke-width:2;stroke-linecap:round;stroke-linejoin:round;stroke-miterlimit:10" />
    <polyline
       stroke-miterlimit="10"
       points="18.9534,29.9307 18.5203,26.5594 22.3532,26.0317"
       id="polyline20"
       style="fill:none;stroke:#000000;stroke-width:2;stroke-linecap:round;stroke-linejoin:round;stroke-miterlimit:10" />
    <path
       stroke-miterlimit="10"
       d="m 52.7412,30.4638 c 0,0 0.953,8.5508 -6.8608,7.9185 -2.6197,-0.212 -7.8164,-0.6507 -7.867,-8.3427 -0.0046,-0.6979 0.0078,-1.5989 0.8108,-2.6298 1.0647,-1.3669 3.5716,-1.9711 9.9446,-1.422 0,10e-5 3.4463,-0.099 3.9724,4.476 z"
       id="path22"
       inkscape:connector-curvature="0"
       style="fill:none;stroke:#000000;stroke-width:2;stroke-linecap:round;stroke-linejoin:round;stroke-miterlimit:10" />
    <path
       stroke-miterlimit="10"
       d="m 31.5048,26.4158 c 0,0 4.1241,2.5339 8.6569,0"
       id="path24"
       inkscape:connector-curvature="0"
       style="fill:none;stroke:#000000;stroke-width:2;stroke-linecap:round;stroke-linejoin:round;stroke-miterlimit:10" />
    <path
       stroke-miterlimit="10"
       d="M 38.0135,30.0396"
       id="path26"
       inkscape:connector-curvature="0"
       style="fill:none;stroke:#000000;stroke-width:2;stroke-linecap:round;stroke-linejoin:round;stroke-miterlimit:10" />
    <path
       stroke-miterlimit="10"
       d="M 33.6104,30.0396"
       id="path28"
       inkscape:connector-curvature="0"
       style="fill:none;stroke:#000000;stroke-width:2;stroke-linecap:round;stroke-linejoin:round;stroke-miterlimit:10" />
    <path
       stroke-miterlimit="10"
       d="m 33.5361,31.3179 c 0,0 2.2019,-3.7509 4.5362,0"
       id="path30"
       inkscape:connector-curvature="0"
       style="fill:none;stroke:#000000;stroke-width:2;stroke-linecap:round;stroke-linejoin:round;stroke-miterlimit:10" />
    <polyline
       stroke-miterlimit="10"
       points="52.6639,29.9332 53.097,26.5619 49.2641,26.0342"
       id="polyline32"
       style="fill:none;stroke:#000000;stroke-width:2;stroke-linecap:round;stroke-linejoin:round;stroke-miterlimit:10" />
    <path
       stroke-miterlimit="10"
       d="m 33.9549,30.0271 c 0,0 1.7954,-3.7509 3.6988,0"
       id="path34"
       inkscape:connector-curvature="0"
       style="fill:none;stroke:#000000;stroke-width:2;stroke-linecap:round;stroke-linejoin:round;stroke-miterlimit:10" />
  </g>
</svg>
