<?xml version="1.0" encoding="UTF-8" standalone="no"?>
<svg
   xmlns:dc="http://purl.org/dc/elements/1.1/"
   xmlns:cc="http://creativecommons.org/ns#"
   xmlns:rdf="http://www.w3.org/1999/02/22-rdf-syntax-ns#"
   xmlns:svg="http://www.w3.org/2000/svg"
   xmlns="http://www.w3.org/2000/svg"
   xmlns:sodipodi="http://sodipodi.sourceforge.net/DTD/sodipodi-0.dtd"
   xmlns:inkscape="http://www.inkscape.org/namespaces/inkscape"
   width="500"
   height="500"
   viewBox="0 0 500.00001 500.00001"
   id="svg2"
   version="1.1"
   inkscape:version="0.92.2 5c3e80d, 2017-08-06"
   sodipodi:docname="duplicate.svg">
  <defs
     id="defs4" />
  <sodipodi:namedview
     id="base"
     pagecolor="#ffffff"
     bordercolor="#666666"
     borderopacity="1.0"
     inkscape:pageopacity="0.0"
     inkscape:pageshadow="2"
     inkscape:zoom="1.4"
     inkscape:cx="-75.357142"
     inkscape:cy="-130"
     inkscape:document-units="px"
     inkscape:current-layer="layer1"
     showgrid="false"
     units="px"
     showguides="true"
     inkscape:guide-bbox="true"
     inkscape:window-width="2560"
     inkscape:window-height="1375"
     inkscape:window-x="0"
     inkscape:window-y="0"
     inkscape:window-maximized="1" />
  <metadata
     id="metadata7">
    <rdf:RDF>
      <cc:Work
         rdf:about="">
        <dc:format>image/svg+xml</dc:format>
        <dc:type
           rdf:resource="http://purl.org/dc/dcmitype/StillImage" />
      </cc:Work>
    </rdf:RDF>
  </metadata>
  <g
     inkscape:label="Layer 1"
     inkscape:groupmode="layer"
     id="layer1"
     transform="translate(0,-552.36216)">
    <text
       xml:space="preserve"
       style="font-style:normal;font-weight:normal;font-size:53.3333px;line-height:1.25;font-family:sans-serif;fill:#000000;fill-opacity:1;stroke:none"
       x="361.44321"
       y="657.68884"
       id="text3225"><tspan
         sodipodi:role="line"
         id="tspan3223"
         x="361.44321"
         y="657.68884" /></text>
    <path
       style="color:#000000;font-style:normal;font-variant:normal;font-weight:normal;font-stretch:normal;font-size:medium;line-height:normal;font-family:sans-serif;font-variant-ligatures:normal;font-variant-position:normal;font-variant-caps:normal;font-variant-numeric:normal;font-variant-alternates:normal;font-feature-settings:normal;text-indent:0;text-align:start;text-decoration:none;text-decoration-line:none;text-decoration-style:solid;text-decoration-color:#000000;letter-spacing:normal;word-spacing:normal;text-transform:none;writing-mode:lr-tb;direction:ltr;text-orientation:mixed;dominant-baseline:auto;baseline-shift:baseline;text-anchor:start;white-space:normal;shape-padding:0;clip-rule:nonzero;display:inline;overflow:visible;visibility:visible;opacity:1;isolation:auto;mix-blend-mode:normal;color-interpolation:sRGB;color-interpolation-filters:linearRGB;solid-color:#000000;solid-opacity:1;vector-effect:none;fill:#e6e6e6;fill-opacity:1;fill-rule:nonzero;stroke:none;stroke-width:33.30182266;stroke-linecap:round;stroke-linejoin:round;stroke-miterlimit:6.69999981;stroke-dasharray:3.33018223, 3.33018223000000013;stroke-dashoffset:193.55499268;stroke-opacity:1;color-rendering:auto;image-rendering:auto;shape-rendering:auto;text-rendering:auto;enable-background:accumulate"
       d="m 50.90233,580.88836 -0.58307,0.10692 -1.22061,-0.0868 -0.98859,0.0464 -1.62816,0.16141 -0.82517,0.12306 -4.66657,1.58982 -0.83123,0.0948 -3.65376,1.60798 -0.48421,0.28649 -1.32956,0.87561 -0.74447,0.54272 -1.23675,0.99666 -0.68597,0.6093 -1.13991,1.11368 -0.62342,0.66983 -1.03499,1.22666 -0.008,0.0103 -1.48895,2.92139 -0.69403,0.70211 -1.83394,3.5428 -0.115,0.31271 -0.50842,1.60193 -0.23807,0.90588 -0.345,1.66446 -0.14527,0.93817 -0.17754,1.70279 -0.0484,0.96842 -0.0222,0.85343 v 0.14324 l 0.24211,1.32148 -0.24211,2.00746 v 3.33095 l 0.24211,1.3215 -0.24211,2.00745 v 3.33096 l 0.24211,1.32149 -0.24211,2.00946 v 3.32894 l 0.24211,1.3235 -0.24211,2.00746 v 3.33096 l 0.24211,1.31947 -0.24211,2.00947 v 3.32894 l 0.24211,1.32351 -0.24211,2.00947 v 3.32893 l 0.24211,1.32351 -0.24211,2.00543 v 3.33096 l 0.24211,1.32149 -0.24211,2.00947 v 3.32895 l 0.24211,1.3235 -0.24211,2.00744 v 3.33096 l 0.24211,1.32149 -0.24211,2.00746 v 3.33095 l 0.24211,1.3215 -0.24211,2.00745 v 3.33096 l 0.24211,1.32148 -0.24211,2.00948 v 3.32893 l 0.24211,1.32351 -0.24211,2.00745 v 3.33096 l 0.24211,1.31946 -0.24211,2.00948 v 3.33096 l 0.24211,1.32148 -0.24211,2.00947 v 3.32894 l 0.24211,1.32351 -0.24211,2.00745 v 3.32894 l 0.24211,1.32148 -0.24211,2.00948 v 3.33096 l 0.24211,1.32148 -0.24211,2.00745 v 3.32895 l 0.24211,1.3235 -0.24211,2.00947 v 3.32895 l 0.24211,1.32148 -0.24211,2.00745 v 3.33298 l 0.24211,1.31947 -0.24211,2.00947 v 3.32894 l 0.24211,1.32351 -0.24211,2.00745 v 3.33096 l 0.24211,1.32148 -0.24211,2.00745 v 3.33096 l 0.24211,1.32149 -0.24211,2.00947 v 3.32894 l 0.24211,1.32149 -0.24211,2.00947 v 3.32893 l 0.24211,1.32351 -0.24211,2.00745 v 3.33096 l 0.24211,1.32149 -0.24211,2.00745 v 3.32895 l 0.24211,1.32349 -0.24211,2.00948 v 3.32894 l 0.24211,1.3235 -0.24211,2.00544 v 3.33297 l 0.24211,1.31948 -0.24211,2.00947 v 3.32893 l 0.24211,1.32352 -0.24211,2.00744 v 3.33096 l 0.24211,1.32149 -0.24211,2.00745 v 3.33096 l 0.24211,1.32149 -0.24211,2.00947 v 3.32894 l 0.24211,1.32148 -0.24211,2.00947 v 3.32894 l 0.24211,1.32351 -0.24211,2.00745 v 3.33096 l 0.24211,1.32149 -0.24211,2.00746 v 3.33094 l 0.24211,1.3215 -0.24211,2.00946 v 3.32895 l 0.24211,1.3235 -0.24211,2.00745 v 3.33096 l 0.24211,1.31947 -0.24211,2.00948 v 3.33096 l 0.24211,1.32148 -0.24211,2.00745 v 3.33096 l 0.24211,1.32149 -0.24211,2.00947 v 3.32894 l 0.24211,1.32148 -0.24211,2.00745 v 3.33298 l 0.24211,1.31947 -0.24211,2.00947 v 3.32894 l 0.24211,1.32351 -0.24211,2.00947 v 3.32894 l 0.24211,1.32148 -0.24211,2.00746 v 3.33095 l 0.24211,1.3215 -0.24211,2.00946 v 3.32895 l 0.24211,1.3235 -0.24211,2.00746 v 3.33095 l 0.24211,1.31947 -0.24211,2.00947 v 3.33096 l 0.24211,1.32149 -0.24211,2.00745 v 3.33096 l 0.24211,1.32148 -0.24211,2.00948 v 3.32893 l 0.24211,1.32149 -0.24211,2.00745 v 1.20649 l 0.0222,0.85342 0.0484,0.96842 0.17754,1.70281 0.14527,0.93815 0.345,1.66447 0.0525,0.19974 1.48087,3.16149 0.11097,0.82113 1.68061,3.61745 0.0868,0.13719 0.91999,1.3336 0.55483,0.72631 1.035,1.22666 0.62341,0.66983 1.13992,1.11368 0.68596,0.60728 1.23675,0.99666 0.34298,0.25018 3.86157,1.86218 1.14597,0.90185 3.72841,1.42438 0.89982,0.22394 1.59386,0.31676 0.96236,0.14324 1.62816,0.15939 0.98859,0.0504 0.81711,0.0182 h 0.43982 l 1.32149,-0.24211 2.00745,0.24211 h 3.33096 l 1.3235,-0.24211 2.00746,0.24211 h 3.32894 l 1.3235,-0.24211 2.00745,0.24211 h 3.33096 l 1.32149,-0.24211 2.00745,0.24211 h 3.33096 l 1.32149,-0.24211 2.00745,0.24211 h 3.33096 l 1.3235,-0.24211 2.00745,0.24211 h 3.32895 l 1.3235,-0.24211 2.00745,0.24211 h 3.33097 l 1.32148,-0.24211 2.00745,0.24211 h 3.33096 l 1.32351,-0.24211 2.00745,0.24211 h 3.32894 l 1.32351,-0.24211 2.00744,0.24211 h 3.32894 l 1.32351,-0.24211 2.00745,0.24211 h 3.33095 l 1.32149,-0.24211 2.00745,0.24211 h 3.33096 l 1.32351,-0.24211 2.00745,0.24211 h 3.32894 l 1.32149,-0.24211 2.00745,0.24211 h 3.33297 l 1.32149,-0.24211 2.00746,0.24211 h 3.32893 l 1.32351,-0.24211 2.00745,0.24211 h 3.33096 l 1.32149,-0.24211 2.00745,0.24211 h 0.93412 v -33.30151 h -0.93412 l -1.32149,0.2421 -2.00745,-0.2421 h -3.33096 l -1.32351,0.2421 -2.00745,-0.2421 h -3.32893 l -1.32351,0.2421 -2.00544,-0.2421 h -3.33297 l -1.32149,0.2421 -2.00745,-0.2421 h -3.32894 l -1.32351,0.2421 -2.00745,-0.2421 h -3.33096 l -1.3235,0.2421 -2.00544,-0.2421 h -3.33095 l -1.3235,0.2421 -2.00746,-0.2421 h -3.32894 l -1.3235,0.2421 -2.00745,-0.2421 h -3.32894 l -1.32552,0.2421 -2.00544,-0.2421 H 100.308 l -1.32148,0.2421 -2.00745,-0.2421 H 93.6481 l -1.3235,0.2421 -2.00745,-0.2421 H 86.9882 l -1.3235,0.2421 -2.00745,-0.2421 h -3.33096 l -1.32149,0.2421 -2.00745,-0.2421 h -3.33096 l -1.32149,0.2421 -2.00745,-0.2421 h -3.33096 l -1.3235,0.2421 -2.00745,-0.2421 H 60.3466 l -1.32351,0.2421 -2.00745,-0.2421 h -0.11299 v -0.65166 l -0.2421,-1.32351 0.2421,-2.00745 v -3.33096 l -0.2421,-1.32149 0.2421,-2.00745 v -3.33096 l -0.2421,-1.32148 0.2421,-2.00746 v -3.33096 l -0.2421,-1.32149 0.2421,-2.00946 v -3.32895 l -0.2421,-1.3235 0.2421,-2.00746 v -3.33095 l -0.2421,-1.32149 0.2421,-2.00745 v -3.33096 l -0.2421,-1.32149 0.2421,-2.00947 v -3.32894 l -0.2421,-1.32351 0.2421,-2.00745 v -3.33096 l -0.2421,-1.31946 0.2421,-2.00947 v -3.33096 l -0.2421,-1.32149 0.2421,-2.00745 v -3.33096 l -0.2421,-1.32149 0.2421,-2.00947 v -3.32893 l -0.2421,-1.32149 0.2421,-2.00746 v -3.33297 l -0.2421,-1.31948 0.2421,-2.00946 v -3.32913 l -0.2421,-1.32351 0.2421,-2.00947 v -3.32893 l -0.2421,-1.32149 0.2421,-2.00746 v -3.33095 l -0.2421,-1.3215 0.2421,-2.00946 v -3.32895 l -0.2421,-1.3235 0.2421,-2.00744 v -3.32895 l -0.2421,-1.3235 0.2421,-2.00746 v -3.33096 l -0.2421,-1.32149 0.2421,-2.00745 v -3.33096 l -0.2421,-1.32148 0.2421,-2.00948 v -3.32893 l -0.2421,-1.32351 0.2421,-2.00543 v -3.33298 l -0.2421,-1.31946 0.2421,-2.00948 v -3.32893 l -0.2421,-1.32351 0.2421,-2.00947 v -3.32894 l -0.2421,-1.32149 0.2421,-2.00746 v -3.33095 l -0.2421,-1.32149 0.2421,-2.00947 v -3.32894 l -0.2421,-1.3235 0.2421,-2.00745 v -3.32895 l -0.2421,-1.3235 0.2421,-2.00746 v -3.33096 l -0.2421,-1.32148 0.2421,-2.00745 v -3.33096 l -0.2421,-1.32149 0.2421,-2.00947 v -3.32894 l -0.2421,-1.32351 0.2421,-2.00745 v -3.33096 l -0.2421,-1.31946 0.2421,-2.00947 v -3.33096 l -0.2421,-1.32149 0.2421,-2.00947 v -3.32894 l -0.2421,-1.32149 0.2421,-2.00947 v -3.32893 l -0.2421,-1.3215 0.2421,-2.00946 v -3.33096 l -0.2421,-1.32149 0.2421,-2.00746 v -3.32894 l -0.2421,-1.3235 0.2421,-2.00947 v -3.32894 l -0.2421,-1.32149 0.2421,-2.00745 v -3.33096 l -0.2421,-1.32149 0.2421,-2.00947 v -3.32893 l -0.2421,-1.32352 0.2421,-2.00744 v -3.33096 l -0.2421,-1.31947 0.2421,-2.00947 v -3.33096 l -0.2421,-1.32149 0.2421,-2.00745 v -3.33096 l -0.2421,-1.32148 0.2421,-2.00947 v -3.32894 l -0.2421,-1.3215 0.2421,-2.00946 v -3.33096 l -0.2421,-1.32149 0.2421,-2.00746 v -3.32893 l -0.2421,-1.32351 0.2421,-2.00946 v -3.32895 l -0.2421,-1.32149 0.2421,-2.00745 v -3.33297 l -0.2421,-1.31947 0.2421,-2.00948 v -3.32893 l -0.2421,-1.32351 0.2421,-2.00745 v -3.33096 l -0.2421,-1.32149 0.20377,-1.68262 0.69807,0.0847 h 3.33096 l 1.32149,-0.24211 2.00947,0.24211 h 3.32894 l 1.3235,-0.24211 2.00745,0.24211 h 3.33096 l 1.32149,-0.24211 2.00745,0.24211 h 3.33096 l 1.32149,-0.24211 2.00947,0.24211 h 3.32894 l 1.3235,-0.24211 2.00746,0.24211 h 3.33095 l 1.31948,-0.24211 2.00946,0.24211 h 3.33096 l 1.32149,-0.24211 2.00746,0.24211 h 3.33095 l 1.32149,-0.24211 2.00947,0.24211 h 3.32894 l 1.32149,-0.24211 2.00745,0.24211 h 3.33297 l 1.31947,-0.24211 2.00947,0.24211 h 3.32893 l 1.32351,-0.24211 2.00947,0.24211 h 3.32894 l 1.32149,-0.24211 2.00745,0.24211 h 3.33096 l 1.32148,-0.24211 2.00948,0.24211 h 3.32893 l 1.32351,-0.24211 2.00745,0.24211 h 3.32895 l 1.3235,-0.24211 2.00745,0.24211 h 3.33096 l 1.32148,-0.24211 2.00746,0.24211 h 3.33095 l 1.3215,-0.24211 2.00946,0.24211 h 3.32895 l 1.3235,-0.24211 2.00544,0.24211 h 3.33297 l 1.31947,-0.24211 2.00947,0.24211 h 3.32894 l 1.32351,-0.24211 2.00946,0.24211 h 3.32895 l 1.32149,-0.24211 2.00744,0.24211 h 3.33096 l 1.32149,-0.24211 2.00947,0.24211 h 3.32894 l 1.32351,-0.24211 2.00745,0.24211 h 3.32895 l 1.3235,-0.24211 2.00745,0.24211 h 3.33095 l 1.32149,-0.24211 2.00746,0.24211 h 3.33095 l 1.3215,-0.24211 2.00946,0.24211 h 3.32895 l 1.3235,-0.24211 2.00745,0.24211 h 3.33095 l 1.31948,-0.24211 2.00947,0.24211 h 3.33096 l 1.32149,-0.24211 2.00745,0.24211 h 3.33096 l 1.32148,-0.24211 2.00948,0.24211 h 3.32893 l 1.32149,-0.24211 2.00947,0.24211 h 3.33096 l 1.32149,-0.24211 2.00745,0.24211 h 3.32894 l 1.3235,-0.24211 2.00947,0.24211 h 3.32894 l 1.32149,-0.24211 2.00746,0.24211 h 3.33096 l 1.32148,-0.24211 2.00947,0.24211 h 3.32894 l 1.3235,-0.24211 2.00746,0.24211 h 3.33095 l 1.31948,-0.24211 2.00947,0.24211 h 3.33096 l 1.32148,-0.24211 2.00745,0.24211 h 3.33096 l 1.32149,-0.24211 2.00947,0.24211 h 3.32894 l 1.32148,-0.24211 2.00948,0.24211 h 3.33096 l 1.32148,-0.24211 2.00745,0.24211 h 3.32895 l 1.3235,-0.24211 2.00947,0.24211 h 3.32894 l 1.3215,-0.24211 2.00744,0.24211 h 3.33298 l 1.31947,-0.24211 2.00946,0.24211 h 3.32895 l 1.3235,-0.24211 2.00746,0.24211 h 3.33096 l 1.32148,-0.24211 2.00745,0.24211 h 3.33096 l 1.32149,-0.24211 2.00745,0.24211 h 3.33096 l 1.32149,-0.24211 2.00947,0.24211 h 2.2657 l 0.0103,0.0504 -0.2421,2.00947 v 3.32893 l 0.2421,1.32351 -0.2421,2.00948 v 3.32893 l 0.2421,1.32149 -0.2421,2.00745 v 3.33096 l 0.2421,1.32149 -0.2421,2.00947 v 3.32893 l 0.2421,1.32351 -0.2421,2.00745 v 3.32895 l 0.2421,1.3235 -0.2421,2.00746 v 3.33095 l 0.2421,1.3215 -0.2421,2.00745 v 3.33095 l 0.2421,1.32149 -0.2421,2.00946 v 3.32895 l 0.2421,1.3235 -0.2421,2.00544 v 3.33298 l 0.2421,1.31946 -0.2421,2.00947 v 3.32894 l 0.2421,1.32351 -0.2421,2.00745 v 3.33096 l 0.2421,1.32149 -0.2421,2.00745 v 3.33096 l 0.2421,1.32148 -0.2421,2.00948 v 3.32894 l 0.2421,1.3235 -0.2421,2.00745 v 3.32895 l 0.2421,1.3235 -0.2421,2.00746 v 3.33095 l 0.2421,1.32149 -0.002,0.0121 h 32.90203 l 0.16141,-1.33359 v -3.32894 l -0.24413,-1.32149 0.24413,-2.00947 v -3.33096 l -0.24413,-1.32149 0.24413,-2.00745 v -3.32893 l -0.24413,-1.32351 0.24413,-2.00947 v -3.32894 l -0.24413,-1.32149 0.24413,-2.00746 v -3.33297 l -0.24413,-1.31947 0.24413,-2.00947 v -3.32894 l -0.24413,-1.3235 0.24413,-2.00745 v -3.33096 l -0.24413,-1.32149 0.24413,-2.00746 v -3.33096 l -0.24413,-1.32148 0.24413,-2.00745 v -3.33096 l -0.24413,-1.32149 0.24413,-2.00947 v -3.32894 l -0.24413,-1.32148 0.24413,-2.00948 v -3.33096 l -0.24413,-1.32148 0.24413,-2.00745 v -3.32895 l -0.24413,-1.3235 0.24413,-2.00947 v -3.32894 l -0.24413,-1.32148 0.24413,-2.00746 v -3.33095 l -0.24413,-1.3215 0.24413,-2.00946 v -3.32895 l -0.24413,-1.3235 0.24413,-2.00746 v -3.33095 l -0.2522,-1.37193 0.19369,-2.81044 -0.0141,-0.25016 -0.17553,-1.70281 -0.14527,-0.94018 -0.34701,-1.66446 -0.23807,-0.90588 -0.5064,-1.60192 -0.32483,-0.86754 -0.6557,-1.52527 -0.11702,-0.23806 -2.07402,-2.79632 -0.23202,-0.67991 -2.34842,-3.22605 -0.0464,-0.0525 -1.13991,-1.11368 -0.68597,-0.60728 -1.23876,-0.99868 -0.74246,-0.54071 -1.32955,-0.8756 -0.79693,-0.4721 -1.41228,-0.7465 -0.45193,-0.21184 -4.26306,-1.12377 -1.25491,-0.63755 -3.93421,-0.67184 -0.96639,-0.0484 -0.81509,-0.0201 h -2.36254 l -1.32148,0.2421 -2.00948,-0.2421 h -3.32894 l -1.3235,0.2421 -2.00745,-0.2421 h -3.33096 l -1.31947,0.2421 -2.00948,-0.2421 h -3.33096 l -1.32148,0.2421 -2.00745,-0.2421 h -3.33096 l -1.32149,0.2421 -2.00947,-0.2421 h -3.32894 l -1.32148,0.2421 -2.00745,-0.2421 h -3.33299 l -1.31946,0.2421 -2.00947,-0.2421 h -3.32894 l -1.32351,0.2421 -2.00947,-0.2421 h -3.32894 l -1.32148,0.2421 -2.00746,-0.2421 h -3.33095 l -1.3215,0.2421 -2.00946,-0.2421 h -3.32895 l -1.3235,0.2421 -2.00745,-0.2421 h -3.33096 l -1.32148,0.2421 -2.00746,-0.2421 h -3.33096 l -1.32149,0.2421 -2.00745,-0.2421 h -3.33096 l -1.32149,0.2421 -2.00947,-0.2421 h -3.32893 l -1.32351,0.2421 -2.00543,-0.2421 h -3.33298 l -1.31947,0.2421 -2.00947,-0.2421 h -3.32895 l -1.32349,0.2421 -2.00948,-0.2421 h -3.32893 l -1.32149,0.2421 -2.00746,-0.2421 h -3.33095 l -1.3215,0.2421 -2.00946,-0.2421 h -3.32894 l -1.32351,0.2421 -2.00744,-0.2421 h -3.33096 l -1.32149,0.2421 -2.00746,-0.2421 h -3.33096 l -1.32149,0.2421 -2.00745,-0.2421 H 237.394 l -1.32148,0.2421 -2.00947,-0.2421 h -3.32894 l -1.32351,0.2421 -2.00745,-0.2421 h -3.33096 l -1.31946,0.2421 -2.00948,-0.2421 h -3.33095 l -1.32149,0.2421 -2.00947,-0.2421 h -3.32894 l -1.32351,0.2421 -2.00745,-0.2421 h -3.32894 l -1.32149,0.2421 -2.00947,-0.2421 h -3.33096 l -1.32148,0.2421 -2.00746,-0.2421 h -3.32894 l -1.32351,0.2421 -2.00946,-0.2421 h -3.32895 l -1.32148,0.2421 -2.00745,-0.2421 h -3.33297 l -1.31948,0.2421 -2.00947,-0.2421 h -3.32894 l -1.32351,0.2421 -2.00745,-0.2421 h -3.33096 l -1.31947,0.2421 -2.00946,-0.2421 h -3.33096 l -1.32149,0.2421 -2.00947,-0.2421 h -3.32894 l -1.32148,0.2421 -2.00948,-0.2421 h -3.32894 l -1.32149,0.2421 -2.00946,-0.2421 h -3.33096 l -1.32149,0.2421 -2.00746,-0.2421 h -3.32893 l -1.32351,0.2421 -2.00947,-0.2421 h -3.32894 l -1.32148,0.2421 -2.00745,-0.2421 h -3.33297 l -1.31948,0.2421 -2.00947,-0.2421 h -3.32893 l -1.32351,0.2421 -2.00745,-0.2421 h -3.33096 l -1.32149,0.2421 -2.00745,-0.2421 h -3.33096 l -1.32149,0.2421 -2.00746,-0.2421 h -3.33095 l -1.32149,0.2421 -2.00947,-0.2421 h -3.32894 l -1.3235,0.2421 -2.00745,-0.2421 h -3.33096 l -1.32149,0.2421 -2.00745,-0.2421 h -3.33098 l -1.32149,0.2421 -2.00947,-0.2421 h -3.32894 l -1.32351,0.2421 -2.00745,-0.2421 h -3.33096 l -1.31947,0.2421 -2.00947,-0.2421 z"
       id="rect6493-4-3"
       inkscape:connector-curvature="0" />
    <path
       style="color:#000000;font-style:normal;font-variant:normal;font-weight:normal;font-stretch:normal;font-size:medium;line-height:normal;font-family:sans-serif;font-variant-ligatures:normal;font-variant-position:normal;font-variant-caps:normal;font-variant-numeric:normal;font-variant-alternates:normal;font-feature-settings:normal;text-indent:0;text-align:start;text-decoration:none;text-decoration-line:none;text-decoration-style:solid;text-decoration-color:#000000;letter-spacing:normal;word-spacing:normal;text-transform:none;writing-mode:lr-tb;direction:ltr;text-orientation:mixed;dominant-baseline:auto;baseline-shift:baseline;text-anchor:start;white-space:normal;shape-padding:0;clip-rule:nonzero;display:inline;overflow:visible;visibility:visible;opacity:1;isolation:auto;mix-blend-mode:normal;color-interpolation:sRGB;color-interpolation-filters:linearRGB;solid-color:#000000;solid-opacity:1;vector-effect:none;fill:#e6e6e6;fill-opacity:1;fill-rule:nonzero;stroke:none;stroke-width:0;stroke-linecap:round;stroke-linejoin:round;stroke-miterlimit:6.69999981;stroke-dasharray:none;stroke-dashoffset:0;stroke-opacity:1;color-rendering:auto;image-rendering:auto;shape-rendering:auto;text-rendering:auto;enable-background:accumulate"
       d="m 226.49284,749.87183 -0.57701,0.10492 -1.2085,-0.0868 -0.97851,0.0485 -1.61202,0.1614 -0.8171,0.12104 -4.61815,1.59185 -0.82517,0.0948 -3.61342,1.60798 -0.48017,0.2885 -1.31543,0.87562 -0.73641,0.54473 -1.22666,0.99667 -0.67789,0.6093 -1.12781,1.1157 -0.61736,0.66982 -1.02491,1.22868 -0.008,0.0103 -1.47281,2.92341 -0.68596,0.7021 -1.81578,3.54683 -0.11501,0.31273 -0.50438,1.60394 -0.23403,0.90588 -0.34298,1.66649 -0.14326,0.94016 -0.17552,1.70281 -0.0485,0.97043 -0.0222,0.85343 v 0.14324 l 0.24009,1.32149 -0.24009,2.01149 v 3.33297 l 0.24009,1.32351 -0.24009,2.00947 v 3.33298 l 0.24009,1.3235 -0.24009,2.00947 v 3.33297 l 0.24009,1.32351 -0.24009,2.00947 v 3.33499 l 0.24009,1.32149 -0.24009,2.00947 v 3.33297 l 0.24009,1.32351 -0.24009,2.01149 v 3.33297 l 0.24009,1.32351 -0.24009,2.00947 v 3.33298 l 0.24009,1.3235 -0.24009,2.00947 v 3.33297 l 0.24009,1.32351 -0.24009,2.00947 v 3.33499 l 0.24009,1.3215 -0.0908,0.75859 h -0.27237 l 0.16545,0.89579 -0.0424,0.3571 v 1.03298 l -0.12307,1.00876 v 3.29667 l 0.1715,0.92403 -0.0485,0.40149 v 0.96035 l -0.12307,1.01079 v 3.29665 l 0.17553,0.9543 -0.0525,0.44588 v 0.8857 l -0.12307,1.01079 v 3.29464 l 0.18158,0.98254 -0.0585,0.49026 v 0.81509 l -0.12307,1.01078 v 3.29465 l 0.18764,1.01078 -0.0646,0.53667 v 0.73843 l -0.12307,1.01078 v 3.29867 l 0.19167,1.03904 -0.0686,0.58105 v 0.66377 l -0.12306,1.01078 v 3.29667 l 0.19772,1.0693 -0.0747,0.62341 v 0.59316 l -0.12307,1.00877 v 3.29867 l 0.20378,1.09754 -0.0807,0.66983 v 0.51649 l -0.12306,1.01079 v 3.29666 l 0.2078,1.1278 -0.0847,0.71422 v 0.44587 l -0.12307,1.01078 v 3.29464 l 0.21385,1.15404 -0.0908,0.76061 v 0.37123 l -0.12307,1.01079 v 3.29463 l 0.21991,1.18431 -0.0968,0.80499 v 0.2986 l -0.12307,1.01078 v 3.29667 l 0.22395,1.21254 -0.10092,0.84736 v 0.22395 l -0.12307,1.01078 v 3.29667 l 0.23,1.2428 -0.10693,0.89176 v 0.15131 l -0.12307,1.01079 v 3.29665 l 0.24211,1.30939 -0.24211,1.98728 v 3.29665 l 0.24211,1.30737 -0.24211,1.9893 v 3.29463 l 0.24211,1.30939 -0.24211,1.98728 v 3.29666 l 0.24211,1.30736 -0.24211,1.98929 v 3.29667 l 0.24211,1.30736 -0.24211,1.98728 v 3.29867 l 0.24211,1.30738 -0.24211,1.98726 v 3.29667 l 0.24211,1.30938 -0.24211,1.98728 v 3.29665 l 0.24211,1.30939 -0.24211,1.98728 v 3.29464 l 0.24211,1.30938 -0.24211,1.98929 v 3.29464 l 0.24211,1.30939 -0.24211,1.98728 v 3.29666 l 0.24211,1.30736 -0.24211,1.98929 v 3.29667 l 0.10491,0.57701 -0.0868,1.20851 0.0484,0.9785 0.1614,1.61197 0.12105,0.8171 1.59184,4.6182 0.0948,0.8252 1.60799,3.6134 0.2885,0.4802 0.87562,1.3154 0.54473,0.7364 0.99667,1.2267 0.60929,0.6779 1.1157,1.1278 0.66983,0.6173 1.22868,1.025 0.0103,0.01 2.92341,1.4728 0.70211,0.6859 3.54683,1.8158 0.31273,0.1151 1.60394,0.5044 0.90588,0.2339 1.66648,0.343 0.94017,0.1433 1.70281,0.1755 0.97043,0.048 0.85343,0.023 h 0.14324 l 1.32148,-0.24 2.01149,0.24 h 3.33298 l 1.3235,-0.24 2.00947,0.24 h 3.33298 l 1.32351,-0.24 2.00947,0.24 h 3.33297 l 1.3235,-0.24 2.00948,0.24 h 3.33499 l 1.32149,-0.24 2.00947,0.24 h 3.33297 l 1.32351,-0.24 2.01149,0.24 h 3.33297 l 1.32351,-0.24 2.00946,0.24 h 3.33299 l 1.3235,-0.24 2.00947,0.24 h 3.33297 l 1.32351,-0.24 2.00946,0.24 h 3.335 l 1.32149,-0.24 2.01148,0.24 h 3.33096 l 1.13992,-0.2057 v 0.585 l 1.30937,-0.2421 1.98527,0.2421 h 3.29666 l 1.30937,-0.2421 1.98728,0.2421 h 3.29667 l 1.30938,-0.2421 1.98727,0.2421 h 3.29465 l 1.30938,-0.2421 1.9893,0.2421 h 3.29463 l 1.30939,-0.2421 1.98728,0.2421 h 3.29868 l 1.30534,-0.2421 1.98929,0.2421 h 3.29666 l 1.30938,-0.2421 1.98527,0.2421 h 3.29867 l 1.30736,-0.2421 1.98728,0.2421 h 3.29667 l 1.30938,-0.2421 1.98929,0.2421 h 3.29464 l 1.30736,-0.2421 1.98931,0.2421 h 3.29464 l 1.30938,-0.2421 1.98929,0.2421 h 3.29666 l 1.30737,-0.2421 1.98728,0.2421 h 3.29665 l 1.30938,-0.2421 1.98728,0.2421 h 3.29667 l 1.30937,-0.2421 1.98728,0.2421 h 3.29666 l 1.30736,-0.2421 1.9893,0.2421 h 3.29465 l 1.30938,-0.2421 1.98727,0.2421 h 3.29666 l 1.30737,-0.2421 1.9893,0.2421 h 3.29665 l 1.30737,-0.2421 1.98728,0.2421 h 3.29868 l 1.30736,-0.2421 1.98727,0.2421 h 3.29667 l 1.30937,-0.2421 1.98728,0.2421 h 3.29666 l 1.30939,-0.2421 1.98727,0.2421 h 3.29465 l 1.30937,-0.2421 1.9893,0.2421 h 3.29464 l 1.30939,-0.2421 1.98728,0.2421 h 3.29665 l 1.30737,-0.2421 1.98929,0.2421 h 3.29666 l 0.57702,-0.1049 1.2085,0.087 0.97851,-0.049 1.61201,-0.1613 0.81711,-0.1211 4.61814,-1.5918 0.82518,-0.095 3.61342,-1.608 0.48017,-0.2885 1.31544,-0.8756 0.7364,-0.5448 1.22666,-0.9966 0.67789,-0.6092 1.1278,-1.1158 0.61737,-0.6698 1.02492,-1.2287 0.008,-0.01 1.4728,-2.9234 0.68596,-0.7021 1.8158,-3.5468 0.115,-0.3128 0.50438,-1.6039 0.23403,-0.9059 0.34298,-1.6665 0.14325,-0.9402 0.17552,-1.70277 0.0485,-0.97043 0.0222,-0.85342 v -0.14325 l -0.24009,-1.32149 0.24009,-2.01149 v -3.33297 l -0.24009,-1.32351 0.24009,-2.00946 v -3.33299 l -0.24009,-1.3235 0.24009,-2.00947 v -3.33297 l -0.24009,-1.32351 0.24009,-2.00946 v -3.335 l -0.24009,-1.32149 0.24009,-2.00947 v -3.33297 l -0.24009,-1.32351 0.24009,-2.01149 v -3.33297 l -0.24009,-1.32351 0.24009,-2.00946 v -3.33298 l -0.24009,-1.3235 0.24009,-2.00948 v -3.33297 l -0.24009,-1.32351 0.24009,-2.00947 v -3.33499 l -0.24009,-1.32148 0.0827,-0.68598 h 0.76263 l -0.2421,-1.30938 0.2421,-1.98525 v -3.29667 l -0.2421,-1.30937 0.2421,-1.98728 v -3.29633 l -0.2421,-1.30939 0.2421,-1.98728 v -3.29464 l -0.2421,-1.30938 0.2421,-1.98929 v -3.29464 l -0.2421,-1.30939 0.2421,-1.98728 v -3.29868 l -0.2421,-1.30534 0.2421,-1.98929 v -3.29723 l -0.2421,-1.30937 0.2421,-1.98526 v -3.29868 l -0.2421,-1.30736 0.2421,-1.98728 v -3.29666 l -0.2421,-1.30939 0.2421,-1.98929 v -3.29464 l -0.2421,-1.30737 0.2421,-1.98929 v -3.29464 l -0.2421,-1.30939 0.2421,-1.98929 v -3.29666 l -0.2421,-1.30736 0.2421,-1.98728 v -3.29666 l -0.2421,-1.30938 0.2421,-1.98728 v -3.29666 l -0.2421,-1.30938 0.2421,-1.98728 v -3.29666 l -0.2421,-1.30736 0.2421,-1.9893 v -3.29464 l -0.2421,-1.30939 0.2421,-1.98727 v -3.29666 l -0.2421,-1.30737 0.2421,-1.98929 v -3.29666 l -0.2421,-1.30737 0.2421,-1.98727 v -3.29868 l -0.2421,-1.30736 0.2421,-1.98728 v -3.29667 l -0.2421,-1.30937 0.2421,-1.98728 v -3.29666 l -0.2421,-1.30939 0.2421,-1.98726 v -3.29465 l -0.2421,-1.30939 0.2421,-1.98929 v -3.29464 l -0.2421,-1.30939 0.2421,-1.98727 v -3.29666 l -0.2421,-1.30737 0.2421,-1.98929 v -3.29665 l -0.10491,-0.57703 0.0868,-1.2085 -0.0484,-0.97851 -0.16141,-1.61201 -0.12105,-0.81711 -1.59185,-4.61814 -0.0948,-0.82518 -1.60798,-3.61341 -0.28851,-0.48017 -0.87562,-1.31544 -0.54473,-0.7364 -0.99666,-1.22667 -0.6093,-0.67789 -1.11571,-1.12781 -0.66981,-0.61736 -1.22869,-1.02491 -0.0103,-0.008 -2.92342,-1.4728 -0.7021,-0.68597 -3.54683,-1.81578 -0.31272,-0.11501 -1.60395,-0.50438 -0.90587,-0.23403 -1.66649,-0.34298 -0.94017,-0.14324 -1.70281,-0.17554 -0.97043,-0.0485 -0.85342,-0.0222 h -0.14324 l -1.32149,0.24008 -2.0115,-0.24008 h -3.33297 l -1.3235,0.24008 -2.00947,-0.24008 h -3.33297 l -1.32351,0.24008 -2.00948,-0.24008 h -3.33297 l -1.32351,0.24008 -2.00946,-0.24008 h -3.335 l -1.32148,0.24008 -2.00948,-0.24008 h -3.33297 l -1.32351,0.24008 -2.01148,-0.24008 h -3.33298 l -1.32351,0.24008 -2.00946,-0.24008 h -3.33298 l -1.3235,0.24008 -2.00948,-0.24008 h -3.33297 l -1.32351,0.24008 -2.00947,-0.24008 h -3.33499 l -1.32148,0.24008 -2.0115,-0.24008 h -3.33095 l -1.32351,0.24008 -0.29859,-0.0364 v -0.65772 l -1.30939,0.24211 -1.98525,-0.24211 h -3.29667 l -1.30938,0.24211 -1.98728,-0.24211 h -3.29665 l -1.30939,0.24211 -1.98728,-0.24211 h -3.29463 l -1.30939,0.24211 -1.98929,-0.24211 h -3.29464 l -1.30939,0.24211 -1.98727,-0.24211 h -3.29868 l -1.30535,0.24211 -1.98929,-0.24211 h -3.29666 l -1.30939,0.24211 -1.98525,-0.24211 h -3.29868 l -1.30737,0.24211 -1.98727,-0.24211 h -3.29666 l -1.30939,0.24211 -1.98929,-0.24211 h -3.29464 l -1.30737,0.24211 -1.98929,-0.24211 h -3.29464 l -1.30939,0.24211 -1.98929,-0.24211 h -3.29666 l -1.30736,0.24211 -1.98728,-0.24211 h -3.29667 l -1.30938,0.24211 -1.98727,-0.24211 h -3.29666 l -1.30939,0.24211 -1.98728,-0.24211 h -3.29665 l -1.30737,0.24211 -1.98929,-0.24211 h -3.29464 l -1.30939,0.24211 -1.98728,-0.24211 h -3.29665 l -1.30737,0.24211 -1.98929,-0.24211 h -3.29667 l -1.30736,0.24211 -1.98727,-0.24211 h -3.29868 l -1.30736,0.24211 -1.98728,-0.24211 h -3.29666 l -1.30939,0.24211 -1.98727,-0.24211 h -3.29666 l -1.30939,0.24211 -1.98727,-0.24211 h -3.29464 l -1.30939,0.24211 -1.98929,-0.24211 h -3.29464 l -1.30939,0.24211 -1.98727,-0.24211 h -3.29667 l -1.30736,0.24211 -1.98929,-0.24211 z m 11.19736,33.08765 1.98929,0.24211 h 3.29464 l 1.30938,-0.24211 1.98929,0.24211 h 3.29464 l 1.30939,-0.24211 1.98728,0.24211 h 3.29666 l 1.30736,-0.24211 1.98929,0.24211 h 3.29667 l 1.30938,-0.24211 1.98526,0.24211 h 3.29867 l 1.30736,-0.24211 1.98728,0.24211 h 3.29667 l 1.30938,-0.24211 1.98728,0.24211 h 3.29665 l 1.30737,-0.24211 1.9893,0.24211 h 3.29463 l 1.30939,-0.24211 1.98728,0.24211 h 3.29665 l 1.30737,-0.24211 1.9893,0.24211 h 3.29666 l 1.30937,-0.24211 1.98728,0.24211 0.7364,0.0887 h 3.335 l 1.30333,-0.23606 1.21657,0.14729 h 0.0686 l 0.74447,0.0887 h 3.33298 l 1.2771,-0.23202 1.1722,0.14325 h 0.14122 l 0.74246,0.0887 h 3.33297 l 1.24684,-0.22598 1.12781,0.1372 h 0.21587 l 0.74245,0.0887 h 3.33298 l 1.21658,-0.21992 1.08543,0.13114 h 0.28852 l 0.74446,0.0887 h 3.33298 l 1.18631,-0.21589 1.03904,0.12711 h 0.36315 l 0.74447,0.0887 h 3.33096 l 1.15807,-0.20982 0.99666,0.12105 h 0.4358 l 0.74447,0.0887 h 3.33297 l 1.12781,-0.20377 0.95026,0.115 h 0.51245 l 0.74245,0.0887 h 3.33298 l 1.09956,-0.19974 0.9079,0.11097 h 0.58306 l 0.74246,0.0887 h 3.33297 l 1.0693,-0.19368 0.86552,0.10491 h 0.6557 l 0.74245,0.0887 h 3.335 l 1.03702,-0.18764 0.82114,0.0989 h 0.73034 l 0.74447,0.0887 h 3.33096 l 1.01079,-0.1836 0.77675,0.0948 h 0.80298 l 0.74245,0.0887 h 3.335 l 0.97851,-0.17755 0.73236,0.0887 v -0.10491 l 1.6221,0.19368 h 3.33299 l 1.32349,-0.24009 2.00948,0.24009 h 3.33297 l 1.32149,-0.24009 2.01149,0.24009 h 3.33297 l 1.32351,-0.24009 2.01149,0.24009 h 3.33297 l 1.3235,-0.24009 2.00746,0.24009 h 3.33298 l 1.3235,-0.24009 2.01149,0.24009 h 3.33297 l 1.32351,-0.24009 2.00947,0.24009 h 3.33298 l 1.3235,-0.24009 2.00947,0.24009 h 3.33297 l 1.32351,-0.24009 2.00947,0.24009 h 3.33499 l 1.32149,-0.24009 1.68465,0.20176 -0.0847,0.69202 v 3.29665 l 0.2421,1.30737 -0.2421,1.98929 v 3.29464 l 0.2421,1.30939 -0.2421,1.98929 v 3.29465 l 0.2421,1.30937 -0.2421,1.98728 v 3.29666 l 0.2421,1.30736 -0.2421,1.9893 v 3.29666 l 0.2421,1.30939 -0.2421,1.98525 v 3.29868 l 0.2421,1.30737 -0.2421,1.98728 v 3.29665 l 0.2421,1.30939 -0.2421,1.98727 v 3.29667 l 0.2421,1.30736 -0.2421,1.98929 v 3.29464 l 0.2421,1.30938 -0.2421,1.98728 v 3.29667 l 0.2421,1.30736 -0.2421,1.98929 v 0.31474 h -0.15132 l -0.0887,0.7364 v 3.335 l 0.2401,1.32148 -0.2401,2.01149 v 3.33297 l 0.2401,1.32351 -0.2401,2.00946 v 3.33299 l 0.2401,1.3235 -0.2401,2.00947 v 3.33297 l 0.2401,1.32351 -0.2401,2.01149 v 3.33297 l 0.2401,1.32149 -0.2401,2.01149 v 3.33095 l 0.2401,1.32351 -0.2401,2.01149 v 3.33297 l 0.2401,1.32351 -0.2401,2.00947 v 3.33298 l 0.2401,1.3235 -0.2401,2.00947 v 3.33298 l 0.2401,1.3235 -0.2401,2.00947 v 3.335 l 0.2401,1.32149 -0.2401,2.01148 v 3.33096 l 0.2401,1.3235 -0.2401,2.00947 v 3.335 l 0.2401,1.32148 -0.2401,2.01149 v 3.33297 l 0.2401,1.32351 -0.2401,2.00948 v 3.33297 l 0.2401,1.32149 -0.2401,2.01148 v 3.33297 l 0.2401,1.32351 -0.2401,2.01149 v 3.33297 l 0.2401,1.32351 -0.2401,2.00745 v 3.33298 l 0.2401,1.3235 -0.2401,2.01149 v 3.33298 l 0.2401,1.3235 -0.2401,2.00947 v 3.33298 l 0.2401,1.32351 -0.2401,2.00946 v 3.33298 l 0.2401,1.3235 -0.2401,2.00947 v 3.335 l 0.2401,1.32149 -0.20177,1.68464 -0.69201,-0.0847 h -3.29665 l -1.30737,0.24211 -1.9893,-0.24211 h -3.29464 l -1.30938,0.24211 -1.98929,-0.24211 h -3.29465 l -1.30938,0.24211 -1.98728,-0.24211 h -3.29666 l -1.30736,0.24211 -1.98929,-0.24211 h -3.29667 l -1.30938,0.24211 -1.98525,-0.24211 h -3.29868 l -1.30737,0.24211 -1.98728,-0.24211 h -3.29666 l -1.30938,0.24211 -1.98728,-0.24211 h -3.29671 l -1.30736,0.24211 -1.9893,-0.24211 h -3.29464 l -1.30938,0.24211 -1.98728,-0.24211 h -3.29666 l -1.30736,0.24211 -1.98929,-0.24211 h -3.29667 l -1.30938,0.24211 -1.98728,-0.24211 h -0.13719 l -0.11702,-0.0142 h -3.33499 l -1.25087,0.22799 -1.75123,-0.21387 h -0.21184 l -0.11904,-0.0141 h -3.33297 l -1.22465,0.22193 -1.70683,-0.20781 h -0.28246 l -0.11903,-0.0141 h -3.33299 l -1.19438,0.21588 -1.66245,-0.20176 h -0.3571 l -0.11904,-0.0142 h -3.33297 l -1.16412,0.21184 -1.62008,-0.19772 h -0.43176 l -0.11904,-0.0142 h -3.33297 l -1.13385,0.20579 -1.57369,-0.19166 h -0.5064 l -0.11903,-0.0142 h -3.33096 l -1.10561,0.19974 -1.53132,-0.18562 h -0.57903 l -0.11904,-0.0141 h -3.33297 l -1.07535,0.19571 -1.4849,-0.18159 h -0.6537 l -0.11903,-0.0142 h -3.33297 l -1.04711,0.18966 -1.44254,-0.17554 h -0.72429 l -0.11904,-0.0141 h -3.33297 l -1.01684,0.1836 -1.40017,-0.16948 h -0.79694 l -0.11903,-0.0141 h -3.33499 l -0.98456,0.17956 -1.35579,-0.16544 h -0.8736 l -0.11903,-0.0142 h -3.33096 l -0.95832,0.17351 -1.3114,-0.15939 h -0.94422 l -0.11903,-0.0141 h -3.335 l -0.92604,0.16745 -1.26701,-0.15333 v 0.12105 l -1.13992,-0.13517 h -3.33297 l -1.32351,0.24008 -2.00946,-0.24008 h -3.33299 l -1.32148,0.24008 -2.01149,-0.24008 h -3.33297 l -1.32351,0.24008 -2.01149,-0.24008 h -3.33297 l -1.32351,0.24008 -2.00745,-0.24008 h -3.33297 l -1.32351,0.24008 -2.01149,-0.24008 h -3.33297 l -1.32351,0.24008 -2.00947,-0.24008 h -3.33297 l -1.32352,0.24008 -2.00946,-0.24008 h -3.33298 l -1.3235,0.24008 -2.00947,-0.24008 h -3.335 l -1.32148,0.24008 -1.68464,-0.20175 0.0847,-0.69201 v -3.29667 l -0.24211,-1.30736 0.24211,-1.98929 v -3.29377 l -0.24211,-1.30938 0.24211,-1.98929 v -3.29465 l -0.24211,-1.30938 0.24211,-1.98727 v -3.29666 l -0.24211,-1.30737 0.24211,-1.9893 v -3.29665 l -0.24211,-1.30939 0.24211,-1.98526 v -3.29868 l -0.24211,-1.30736 0.24211,-1.98728 v -3.29666 l -0.24211,-1.30937 0.24211,-1.98728 v -3.29868 l -0.24211,-1.30737 0.24211,-1.98929 v -3.29464 l -0.24211,-1.30939 0.24211,-1.98728 v -3.29665 l -0.24211,-1.30737 0.24211,-1.98929 v -3.29666 l -0.24211,-1.30938 0.24211,-1.98728 v -3.29666 l -0.24211,-1.30736 0.24211,-1.98728 v -3.29667 l -0.24211,-1.30938 0.24211,-1.98929 v -3.29464 l -0.24211,-1.30939 0.24211,-1.98728 v -3.29463 l -0.24211,-1.30939 0.24211,-1.98929 v -3.29464 l -0.24211,-1.30939 0.24211,-1.98727 v -3.29868 l -0.24211,-1.30736 0.24211,-1.98728 v -3.29666 l -0.24211,-1.30938 0.24211,-1.98526 v -3.29868 l -0.24211,-1.30736 0.24211,-1.98929 v -3.29465 l -0.24211,-1.30939 0.24211,-1.98929 v -3.29464 l -0.24211,-1.30737 0.24211,-1.98929 v -3.29464 l -0.24211,-1.30939 0.24211,-1.98929 v -3.29666 l -0.24211,-1.30736 0.24211,-1.98728 h -0.46807 l -0.0142,-0.0726 0.24008,-2.00947 v -3.33298 l -0.24008,-1.32148 0.24008,-2.01149 v -3.33298 l -0.24008,-1.3235 0.24008,-2.01149 v -3.33298 l -0.24008,-1.3235 0.24008,-2.00746 v -3.33297 l -0.24008,-1.3235 0.24008,-2.0115 v -3.33297 l -0.24008,-1.3235 0.24008,-2.00947 v -3.33297 l -0.24008,-1.32351 0.24008,-2.00948 v -3.33297 l -0.24008,-1.32351 0.24008,-2.00946 v -3.335 l -0.24008,-1.32148 0.20175,-1.68465 0.69201,0.0847 h 3.29666 z"
       id="rect6493-4-3-7"
       inkscape:connector-curvature="0" />
  </g>
</svg>
