<?xml version="1.0" encoding="UTF-8" standalone="no"?>
<!-- Generator: Adobe Illustrator 19.0.0, SVG Export Plug-In . SVG Version: 6.00 Build 0)  -->

<svg
   xmlns:dc="http://purl.org/dc/elements/1.1/"
   xmlns:cc="http://creativecommons.org/ns#"
   xmlns:rdf="http://www.w3.org/1999/02/22-rdf-syntax-ns#"
   xmlns:svg="http://www.w3.org/2000/svg"
   xmlns="http://www.w3.org/2000/svg"
   xmlns:sodipodi="http://sodipodi.sourceforge.net/DTD/sodipodi-0.dtd"
   xmlns:inkscape="http://www.inkscape.org/namespaces/inkscape"
   version="1.1"
   id="Capa_1"
   x="0px"
   y="0px"
   viewBox="0 0 500 500"
   xml:space="preserve"
   sodipodi:docname="invert.svg"
   width="500"
   height="500"
   inkscape:version="0.92.2 5c3e80d, 2017-08-06"><metadata
     id="metadata43"><rdf:RDF><cc:Work
         rdf:about=""><dc:format>image/svg+xml</dc:format><dc:type
           rdf:resource="http://purl.org/dc/dcmitype/StillImage" /><dc:title></dc:title></cc:Work></rdf:RDF></metadata><defs
     id="defs41" /><sodipodi:namedview
     pagecolor="#ffffff"
     bordercolor="#666666"
     borderopacity="1"
     objecttolerance="10"
     gridtolerance="10"
     guidetolerance="10"
     inkscape:pageopacity="0"
     inkscape:pageshadow="2"
     inkscape:window-width="1935"
     inkscape:window-height="983"
     id="namedview39"
     showgrid="false"
     inkscape:zoom="0.57259316"
     inkscape:cx="206.08"
     inkscape:cy="206.08"
     inkscape:window-x="157"
     inkscape:window-y="87"
     inkscape:window-maximized="0"
     inkscape:current-layer="Capa_1" /><g
     id="g6"
     transform="matrix(1.2865698,0,0,1.1016947,-15.395283,24.968134)"
     style="fill:#4d4d4d;fill-opacity:1"><g
       id="g4"
       style="fill:#4d4d4d;fill-opacity:1"><path
         d="M 326.72,120.747 206.08,0 85.44,120.747 c -66.667,66.667 -66.667,174.72 0,241.387 33.28,33.28 77.013,50.027 120.64,50.027 43.627,0 87.36,-16.64 120.64,-50.027 66.667,-66.667 66.667,-174.721 0,-241.387 z m -120.64,248.64 c -34.24,0 -66.347,-13.333 -90.453,-37.547 C 91.414,307.733 78.08,275.627 78.08,241.387 c 0,-34.24 13.333,-66.347 37.547,-90.56 L 206.08,60.374 Z"
         id="path2"
         inkscape:connector-curvature="0"
         style="fill:#4d4d4d;fill-opacity:1" /></g></g><g
     id="g8"
     transform="translate(0,87.839996)" /><g
     id="g10"
     transform="translate(0,87.839996)" /><g
     id="g12"
     transform="translate(0,87.839996)" /><g
     id="g14"
     transform="translate(0,87.839996)" /><g
     id="g16"
     transform="translate(0,87.839996)" /><g
     id="g18"
     transform="translate(0,87.839996)" /><g
     id="g20"
     transform="translate(0,87.839996)" /><g
     id="g22"
     transform="translate(0,87.839996)" /><g
     id="g24"
     transform="translate(0,87.839996)" /><g
     id="g26"
     transform="translate(0,87.839996)" /><g
     id="g28"
     transform="translate(0,87.839996)" /><g
     id="g30"
     transform="translate(0,87.839996)" /><g
     id="g32"
     transform="translate(0,87.839996)" /><g
     id="g34"
     transform="translate(0,87.839996)" /><g
     id="g36"
     transform="translate(0,87.839996)" /></svg>