<?xml version="1.0" encoding="UTF-8" standalone="no"?>
<!-- Created with Inkscape (http://www.inkscape.org/) -->

<svg
   xmlns:dc="http://purl.org/dc/elements/1.1/"
   xmlns:cc="http://creativecommons.org/ns#"
   xmlns:rdf="http://www.w3.org/1999/02/22-rdf-syntax-ns#"
   xmlns:svg="http://www.w3.org/2000/svg"
   xmlns="http://www.w3.org/2000/svg"
   xmlns:sodipodi="http://sodipodi.sourceforge.net/DTD/sodipodi-0.dtd"
   xmlns:inkscape="http://www.inkscape.org/namespaces/inkscape"
   width="500"
   height="500"
   viewBox="0 0 500.00001 500.00001"
   id="svg7106"
   version="1.1"
   inkscape:version="0.91 r13725"
   sodipodi:docname="pen.svg">
  <defs
     id="defs7108" />
  <sodipodi:namedview
     id="base"
     pagecolor="#ffffff"
     bordercolor="#666666"
     borderopacity="1.0"
     inkscape:pageopacity="0.0"
     inkscape:pageshadow="2"
     inkscape:zoom="0.7"
     inkscape:cx="-23.686424"
     inkscape:cy="260.21876"
     inkscape:document-units="px"
     inkscape:current-layer="layer1"
     showgrid="false"
     units="px"
     showguides="true"
     inkscape:guide-bbox="true"
     inkscape:window-width="1920"
     inkscape:window-height="1019"
     inkscape:window-x="0"
     inkscape:window-y="0"
     inkscape:window-maximized="1">
    <sodipodi:guide
       position="405.00001,405.00001"
       orientation="-0.70710678,0.70710678"
       id="guide7656"
       inkscape:label=""
       inkscape:color="rgb(0,0,255)" />
  </sodipodi:namedview>
  <metadata
     id="metadata7111">
    <rdf:RDF>
      <cc:Work
         rdf:about="">
        <dc:format>image/svg+xml</dc:format>
        <dc:type
           rdf:resource="http://purl.org/dc/dcmitype/StillImage" />
        <dc:title></dc:title>
      </cc:Work>
    </rdf:RDF>
  </metadata>
  <g
     inkscape:label="Layer 1"
     inkscape:groupmode="layer"
     id="layer1"
     transform="translate(0,-552.36216)">
    <g
       id="g7756"
       transform="matrix(0.70710678,0.70710678,-0.70710678,0.70710678,680.60656,47.745614)">
      <g
         transform="matrix(0.70229327,-0.67229978,0.72364682,0.65246138,-531.81182,504.01572)"
         id="g7676">
        <path
           sodipodi:type="star"
           style="opacity:1;fill:#4d4d4d;fill-opacity:1;stroke:#4d4d4d;stroke-width:6.76850319;stroke-linecap:round;stroke-linejoin:round;stroke-miterlimit:6.69999981;stroke-dasharray:none;stroke-dashoffset:43.99526978;stroke-opacity:1"
           id="path7654"
           sodipodi:sides="3"
           sodipodi:cx="34.285713"
           sodipodi:cy="955.2193"
           sodipodi:r1="43.594841"
           sodipodi:r2="21.797421"
           sodipodi:arg1="-1.5707963"
           sodipodi:arg2="-0.52359878"
           inkscape:flatsided="false"
           inkscape:rounded="0"
           inkscape:randomized="0"
           d="m 34.285714,911.62446 18.877119,32.69613 18.877119,32.69613 -37.754239,0 -37.7542402,0 18.8771202,-32.69613 z"
           transform="matrix(-0.40349291,1.4212661,-1.4212661,-0.40349291,1448.836,1313.0929)"
           inkscape:transform-center-x="-7.873339"
           inkscape:transform-center-y="-8.7949685" />
        <path
           style="opacity:1;fill:#4d4d4d;fill-opacity:1;stroke:#4d4d4d;stroke-width:10;stroke-linecap:round;stroke-linejoin:miter;stroke-miterlimit:6.69999981;stroke-dasharray:none;stroke-dashoffset:43.99526978;stroke-opacity:1"
           d="m 61.737949,913.85022 -15.23242,53.6582 -2.83203,9.97656 43.19922,0 0,29.66402 52.572261,-13.25386 -38.85351,-40.02344 -38.853521,-40.02148 z"
           id="path7654-3"
           inkscape:connector-curvature="0" />
      </g>
      <path
         sodipodi:nodetypes="cccccccccc"
         inkscape:connector-curvature="0"
         id="rect7680"
         d="m 164.1172,633.88756 6e-5,386.23764 129.99994,1e-4 -4e-5,-386.2377 -76.65052,0.71425 -1.42957,362.4002 -30.6939,0 -1.42957,-363.11448 -19.79521,-10e-6 z"
         style="opacity:1;fill:#4d4d4d;fill-opacity:1;stroke:none;stroke-width:13.7618351;stroke-linecap:round;stroke-linejoin:miter;stroke-miterlimit:6.69999981;stroke-dasharray:none;stroke-dashoffset:64.99999237;stroke-opacity:1" />
      <g
         transform="translate(137.33148,-6.0044285)"
         style="fill:#4d4d4d;stroke:none"
         id="g7718">
        <path
           style="opacity:1;fill:#4d4d4d;fill-opacity:1;stroke:none;stroke-width:10;stroke-linecap:round;stroke-linejoin:miter;stroke-miterlimit:6.69999981;stroke-dasharray:none;stroke-dashoffset:64.99999237;stroke-opacity:1"
           d="m 60.086501,562.56475 c -18.01562,0 -32.59742,14.15117 -33.30078,31.98828 l 129.933589,0 c -0.70336,-17.83711 -15.28712,-31.98828 -33.30274,-31.98828 l -63.330069,0 z"
           id="rect7698"
           inkscape:connector-curvature="0" />
        <rect
           style="opacity:1;fill:#4d4d4d;fill-opacity:1;stroke:none;stroke-width:10;stroke-linecap:round;stroke-linejoin:miter;stroke-miterlimit:6.69999981;stroke-dasharray:none;stroke-dashoffset:64.99999237;stroke-opacity:1"
           id="rect7700"
           width="130"
           height="15.714284"
           x="26.785721"
           y="594.52905"
           ry="0" />
      </g>
      <path
         transform="translate(0,552.36216)"
         inkscape:connector-curvature="0"
         id="path7750"
         d="m 164.2055,44.009881 0,-7.767857 64.91072,0 64.91071,0 0,7.767857 0,7.767857 -64.91071,0 -64.91072,0 0,-7.767857 z"
         style="opacity:1;fill:#4d4d4d;fill-opacity:1;stroke:none;stroke-width:10;stroke-linecap:round;stroke-linejoin:miter;stroke-miterlimit:6.69999981;stroke-dasharray:none;stroke-dashoffset:64.99999237;stroke-opacity:1" />
      <path
         transform="translate(0,552.36216)"
         inkscape:connector-curvature="0"
         id="path7752"
         d="m 164.2055,44.009881 0,-7.767857 64.91072,0 64.91071,0 0,7.767857 0,7.767857 -64.91071,0 -64.91072,0 0,-7.767857 z"
         style="opacity:1;fill:#4d4d4d;fill-opacity:1;stroke:none;stroke-width:10;stroke-linecap:round;stroke-linejoin:miter;stroke-miterlimit:6.69999981;stroke-dasharray:none;stroke-dashoffset:64.99999237;stroke-opacity:1" />
      <path
         transform="translate(0,552.36216)"
         inkscape:connector-curvature="0"
         id="path7754"
         d="m 164.24919,42.625952 c 0.0622,-8.500082 0.0945,-9.292246 0.45368,-11.12425 1.43191,-7.303428 5.21003,-14.014214 10.57406,-18.78189 5.23534,-4.6532906 11.66367,-7.4771859 18.78761,-8.2531878 2.4019,-0.2616364 67.70146,-0.2616364 70.10336,0 13.22393,1.4404674 24.20891,10.3430588 28.22241,22.8723838 1.38259,4.316159 1.63628,6.921318 1.63647,16.804802 l 1.5e-4,7.633928 -64.92235,0 -64.92235,0 0.067,-9.151786 z"
         style="opacity:1;fill:#4d4d4d;fill-opacity:1;stroke:none;stroke-width:10;stroke-linecap:round;stroke-linejoin:miter;stroke-miterlimit:6.69999981;stroke-dasharray:none;stroke-dashoffset:64.99999237;stroke-opacity:1" />
    </g>
  </g>
</svg>
