<?xml version="1.0" encoding="UTF-8"?>
<!DOCTYPE svg PUBLIC "-//W3C//DTD SVG 1.1//EN" "http://www.w3.org/Graphics/SVG/1.1/DTD/svg11.dtd">
<svg version="1.2" width="132.29mm" height="132.29mm" viewBox="0 0 13229 13229" preserveAspectRatio="xMidYMid" fill-rule="evenodd" stroke-width="28.222" stroke-linejoin="round" xmlns="http://www.w3.org/2000/svg" xmlns:ooo="http://xml.openoffice.org/svg/export" xmlns:xlink="http://www.w3.org/1999/xlink" xmlns:presentation="http://sun.com/xmlns/staroffice/presentation" xmlns:smil="http://www.w3.org/2001/SMIL20/" xmlns:anim="urn:oasis:names:tc:opendocument:xmlns:animation:1.0" xml:space="preserve">
 <defs class="ClipPathGroup">
  <clipPath id="presentation_clip_path" clipPathUnits="userSpaceOnUse">
   <rect x="0" y="0" width="13229" height="13229"/>
  </clipPath>
  <clipPath id="presentation_clip_path_shrink" clipPathUnits="userSpaceOnUse">
   <rect x="13" y="13" width="13203" height="13203"/>
  </clipPath>
 </defs>
 <defs class="TextShapeIndex">
  <g ooo:slide="id1" ooo:id-list="id3"/>
 </defs>
 <defs class="EmbeddedBulletChars">
  <g id="bullet-char-template-57356" transform="scale(0.00048828125,-0.00048828125)">
   <path d="M 580,1141 L 1163,571 580,0 -4,571 580,1141 Z"/>
  </g>
  <g id="bullet-char-template-57354" transform="scale(0.00048828125,-0.00048828125)">
   <path d="M 8,1128 L 1137,1128 1137,0 8,0 8,1128 Z"/>
  </g>
  <g id="bullet-char-template-10146" transform="scale(0.00048828125,-0.00048828125)">
   <path d="M 174,0 L 602,739 174,1481 1456,739 174,0 Z M 1358,739 L 309,1346 659,739 1358,739 Z"/>
  </g>
  <g id="bullet-char-template-10132" transform="scale(0.00048828125,-0.00048828125)">
   <path d="M 2015,739 L 1276,0 717,0 1260,543 174,543 174,936 1260,936 717,1481 1274,1481 2015,739 Z"/>
  </g>
  <g id="bullet-char-template-10007" transform="scale(0.00048828125,-0.00048828125)">
   <path d="M 0,-2 C -7,14 -16,27 -25,37 L 356,567 C 262,823 215,952 215,954 215,979 228,992 255,992 264,992 276,990 289,987 310,991 331,999 354,1012 L 381,999 492,748 772,1049 836,1024 860,1049 C 881,1039 901,1025 922,1006 886,937 835,863 770,784 769,783 710,716 594,584 L 774,223 C 774,196 753,168 711,139 L 727,119 C 717,90 699,76 672,76 641,76 570,178 457,381 L 164,-76 C 142,-110 111,-127 72,-127 30,-127 9,-110 8,-76 1,-67 -2,-52 -2,-32 -2,-23 -1,-13 0,-2 Z"/>
  </g>
  <g id="bullet-char-template-10004" transform="scale(0.00048828125,-0.00048828125)">
   <path d="M 285,-33 C 182,-33 111,30 74,156 52,228 41,333 41,471 41,549 55,616 82,672 116,743 169,778 240,778 293,778 328,747 346,684 L 369,508 C 377,444 397,411 428,410 L 1163,1116 C 1174,1127 1196,1133 1229,1133 1271,1133 1292,1118 1292,1087 L 1292,965 C 1292,929 1282,901 1262,881 L 442,47 C 390,-6 338,-33 285,-33 Z"/>
  </g>
  <g id="bullet-char-template-9679" transform="scale(0.00048828125,-0.00048828125)">
   <path d="M 813,0 C 632,0 489,54 383,161 276,268 223,411 223,592 223,773 276,916 383,1023 489,1130 632,1184 813,1184 992,1184 1136,1130 1245,1023 1353,916 1407,772 1407,592 1407,412 1353,268 1245,161 1136,54 992,0 813,0 Z"/>
  </g>
  <g id="bullet-char-template-8226" transform="scale(0.00048828125,-0.00048828125)">
   <path d="M 346,457 C 273,457 209,483 155,535 101,586 74,649 74,723 74,796 101,859 155,911 209,963 273,989 346,989 419,989 480,963 531,910 582,859 608,796 608,723 608,648 583,586 532,535 482,483 420,457 346,457 Z"/>
  </g>
  <g id="bullet-char-template-8211" transform="scale(0.00048828125,-0.00048828125)">
   <path d="M -4,459 L 1135,459 1135,606 -4,606 -4,459 Z"/>
  </g>
  <g id="bullet-char-template-61548" transform="scale(0.00048828125,-0.00048828125)">
   <path d="M 173,740 C 173,903 231,1043 346,1159 462,1274 601,1332 765,1332 928,1332 1067,1274 1183,1159 1299,1043 1357,903 1357,740 1357,577 1299,437 1183,322 1067,206 928,148 765,148 601,148 462,206 346,322 231,437 173,577 173,740 Z"/>
  </g>
 </defs>
 <g>
  <g id="id2" class="Master_Slide">
   <g id="bg-id2" class="Background"/>
   <g id="bo-id2" class="BackgroundObjects"/>
  </g>
 </g>
 <g class="SlideGroup">
  <g>
   <g id="container-id1">
    <g id="id1" class="Slide" clip-path="url(#presentation_clip_path)">
     <g class="Page">
      <g class="com.sun.star.drawing.CustomShape">
       <g id="id3">
        <rect class="BoundingBox" stroke="none" fill="none" x="504" y="4011" width="12213" height="5054"/>
        <path fill="rgb(77,77,77)" stroke="none" d="M 2239,8970 L 1513,8970 1513,6160 1520,5698 1532,5196 1517,5219 1494,5253 1429,5342 1282,5528 887,5977 537,5358 1643,4114 2239,4114 2239,8970 Z M 5577,6541 L 5570,6917 5560,7096 5548,7267 5530,7431 5511,7588 5487,7737 5459,7880 5427,8017 5391,8144 5350,8263 5305,8374 5255,8478 5201,8573 5142,8659 5079,8738 5046,8775 5011,8809 4936,8869 4857,8921 4772,8962 4681,8995 4584,9018 4482,9033 4374,9037 4298,9034 4224,9027 4154,9014 4086,8996 4019,8973 3956,8943 3895,8910 3837,8872 3781,8828 3728,8778 3679,8724 3631,8664 3586,8599 3543,8529 3503,8454 3466,8374 3398,8200 3339,8011 3290,7806 3249,7585 3217,7348 3194,7094 3181,6825 3177,6541 3184,6162 3193,5982 3206,5810 3222,5645 3242,5487 3266,5338 3293,5194 3324,5059 3360,4932 3400,4812 3445,4701 3495,4598 3549,4503 3608,4417 3673,4338 3707,4301 3741,4267 3815,4206 3895,4155 3980,4112 4070,4080 4166,4057 4268,4042 4374,4038 4450,4040 4523,4048 4594,4061 4662,4078 4727,4102 4790,4130 4851,4163 4909,4203 4965,4247 5018,4295 5069,4349 5116,4409 5162,4474 5204,4543 5245,4617 5283,4698 5351,4871 5411,5061 5462,5266 5503,5488 5536,5727 5558,5982 5573,6253 5577,6541 Z M 3898,6541 L 3904,6930 3913,7106 3924,7269 3938,7418 3955,7555 3976,7678 4000,7790 4013,7841 4028,7888 4043,7932 4061,7973 4079,8011 4100,8044 4121,8075 4143,8103 4168,8128 4193,8148 4220,8166 4248,8181 4278,8192 4309,8201 4341,8205 4374,8207 4407,8205 4439,8201 4469,8192 4498,8181 4526,8166 4553,8148 4579,8128 4603,8103 4626,8077 4646,8046 4667,8011 4686,7974 4703,7933 4720,7889 4735,7842 4749,7793 4774,7683 4796,7558 4814,7422 4829,7273 4841,7109 4849,6933 4856,6541 4849,6152 4841,5976 4829,5813 4814,5663 4796,5525 4774,5400 4749,5289 4735,5238 4720,5191 4703,5146 4686,5105 4667,5067 4646,5033 4626,5001 4603,4973 4579,4948 4553,4928 4526,4909 4498,4894 4469,4882 4439,4875 4407,4869 4374,4868 4341,4869 4309,4875 4278,4882 4248,4894 4220,4909 4193,4928 4168,4948 4143,4973 4121,5001 4100,5033 4079,5067 4061,5105 4043,5146 4028,5191 4013,5238 4000,5289 3976,5400 3955,5525 3938,5663 3924,5813 3913,5976 3904,6152 3898,6541 Z M 8328,6541 L 8321,6917 8311,7096 8299,7267 8281,7431 8262,7588 8238,7737 8210,7880 8178,8017 8142,8144 8101,8263 8056,8374 8006,8478 7952,8573 7893,8659 7830,8738 7797,8775 7762,8809 7687,8869 7608,8921 7523,8962 7432,8995 7335,9018 7233,9033 7125,9037 7049,9034 6975,9027 6905,9014 6837,8996 6770,8973 6707,8943 6646,8910 6588,8872 6532,8828 6479,8778 6430,8724 6382,8664 6337,8599 6294,8529 6254,8454 6217,8374 6149,8200 6090,8011 6041,7806 6000,7585 5968,7348 5945,7094 5932,6825 5928,6541 5935,6162 5944,5982 5957,5810 5973,5645 5993,5487 6017,5338 6044,5194 6075,5059 6111,4932 6151,4812 6196,4701 6246,4598 6300,4503 6359,4417 6424,4338 6458,4301 6492,4267 6566,4206 6646,4155 6731,4112 6821,4080 6917,4057 7019,4042 7125,4038 7201,4040 7274,4048 7345,4061 7413,4078 7478,4102 7541,4130 7602,4163 7660,4203 7716,4247 7769,4295 7820,4349 7867,4409 7913,4474 7955,4543 7996,4617 8034,4698 8102,4871 8162,5061 8213,5266 8254,5488 8287,5727 8309,5982 8324,6253 8328,6541 Z M 6649,6541 L 6655,6930 6664,7106 6675,7269 6689,7418 6706,7555 6727,7678 6751,7790 6764,7841 6779,7888 6794,7932 6812,7973 6830,8011 6851,8044 6872,8075 6895,8103 6919,8128 6944,8148 6971,8166 6999,8181 7029,8192 7060,8201 7092,8205 7125,8207 7158,8205 7191,8201 7221,8192 7250,8181 7277,8166 7304,8148 7330,8128 7354,8103 7377,8077 7398,8046 7418,8011 7437,7974 7454,7933 7471,7889 7487,7842 7500,7793 7525,7683 7547,7558 7565,7422 7580,7273 7592,7109 7600,6933 7607,6541 7600,6152 7592,5976 7580,5813 7565,5663 7547,5525 7525,5400 7500,5289 7487,5238 7471,5191 7454,5146 7437,5105 7418,5067 7398,5033 7377,5001 7354,4973 7330,4948 7304,4928 7277,4909 7250,4894 7221,4882 7191,4875 7158,4869 7125,4868 7092,4869 7060,4875 7029,4882 6999,4894 6971,4909 6944,4928 6919,4948 6895,4973 6872,5001 6851,5033 6830,5067 6812,5105 6794,5146 6779,5191 6764,5238 6751,5289 6727,5400 6706,5525 6689,5663 6675,5813 6664,5976 6655,6152 6649,6541 Z M 9463,4046 L 9562,4052 9608,4061 9653,4071 9696,4086 9739,4102 9779,4122 9818,4146 9856,4172 9892,4201 9926,4235 9959,4270 9991,4310 10020,4351 10049,4396 10076,4444 10102,4496 10125,4548 10168,4664 10203,4789 10233,4923 10256,5068 10272,5223 10282,5387 10285,5563 10282,5739 10273,5904 10257,6059 10237,6204 10209,6340 10174,6466 10135,6582 10112,6636 10089,6689 10063,6737 10036,6784 10007,6826 9976,6866 9943,6903 9908,6935 9871,6965 9834,6992 9794,7015 9751,7036 9708,7053 9663,7068 9616,7078 9567,7087 9463,7093 9368,7087 9322,7078 9278,7068 9235,7053 9194,7036 9154,7015 9116,6992 9079,6965 9043,6935 9010,6903 8977,6866 8946,6826 8917,6784 8889,6737 8862,6689 8837,6636 8813,6582 8772,6466 8736,6340 8707,6204 8684,6059 8668,5904 8658,5739 8655,5563 8658,5387 8667,5223 8682,5068 8704,4923 8731,4789 8764,4664 8802,4548 8824,4496 8848,4444 8872,4396 8899,4351 8928,4310 8958,4270 8990,4235 9025,4201 9060,4172 9098,4146 9137,4122 9178,4102 9221,4086 9266,4071 9312,4061 9361,4052 9463,4046 Z M 11901,4114 L 9996,8970 9434,8970 11339,4114 11901,4114 Z M 9468,4740 L 9454,4742 9441,4743 9428,4748 9416,4753 9404,4761 9393,4769 9382,4780 9371,4791 9351,4821 9333,4857 9316,4900 9302,4948 9288,5002 9277,5064 9259,5207 9249,5376 9246,5570 9249,5766 9259,5936 9277,6080 9288,6141 9302,6197 9316,6245 9333,6289 9351,6324 9371,6354 9382,6367 9393,6377 9404,6386 9416,6393 9428,6399 9441,6403 9454,6405 9468,6406 9481,6405 9495,6403 9508,6399 9520,6393 9533,6386 9544,6377 9555,6367 9567,6354 9587,6324 9605,6289 9623,6245 9637,6197 9651,6141 9662,6080 9680,5936 9691,5766 9694,5570 9691,5376 9680,5207 9662,5064 9651,5002 9637,4948 9623,4900 9605,4857 9587,4821 9567,4791 9555,4780 9544,4769 9533,4761 9520,4753 9508,4748 9495,4743 9481,4742 9468,4740 Z M 11868,5985 L 11966,5990 12013,5999 12057,6009 12101,6024 12143,6040 12183,6061 12223,6084 12260,6111 12296,6140 12330,6173 12363,6209 12396,6248 12425,6289 12453,6335 12480,6383 12506,6434 12529,6487 12573,6602 12608,6727 12638,6862 12660,7006 12676,7162 12686,7326 12689,7501 12686,7677 12677,7842 12662,7998 12641,8143 12613,8279 12579,8405 12539,8520 12517,8576 12493,8627 12467,8677 12440,8722 12411,8765 12380,8804 12347,8841 12313,8873 12275,8904 12237,8930 12198,8954 12155,8974 12112,8992 12067,9006 12020,9017 11971,9025 11868,9031 11772,9025 11726,9017 11682,9006 11639,8992 11599,8974 11558,8954 11520,8930 11484,8904 11447,8873 11414,8841 11381,8804 11350,8765 11321,8722 11293,8675 11266,8627 11242,8574 11218,8520 11176,8405 11140,8279 11111,8143 11088,7998 11073,7842 11062,7677 11059,7501 11062,7326 11072,7162 11086,7006 11108,6862 11135,6727 11168,6602 11206,6487 11228,6434 11252,6383 11277,6335 11304,6289 11333,6248 11363,6209 11395,6173 11429,6140 11464,6111 11502,6084 11542,6061 11582,6040 11625,6024 11670,6009 11717,5999 11765,5990 11868,5985 Z M 11872,6679 L 11858,6680 11845,6681 11832,6686 11820,6692 11809,6699 11797,6708 11786,6718 11776,6730 11755,6759 11737,6796 11721,6837 11706,6886 11693,6941 11681,7002 11664,7146 11653,7312 11650,7507 11653,7703 11664,7873 11681,8017 11693,8080 11706,8135 11721,8184 11737,8226 11755,8263 11776,8292 11786,8305 11797,8315 11809,8324 11820,8331 11832,8337 11845,8342 11858,8343 11872,8345 11885,8343 11900,8342 11912,8337 11925,8331 11937,8324 11948,8315 11960,8305 11971,8292 11991,8263 12009,8226 12027,8184 12042,8135 12055,8080 12066,8017 12084,7873 12095,7703 12098,7507 12095,7312 12084,7146 12066,7002 12055,6941 12042,6886 12027,6837 12009,6796 11991,6759 11971,6730 11960,6718 11948,6708 11937,6699 11925,6692 11912,6686 11900,6681 11885,6680 11872,6679 Z"/>
        <path fill="none" stroke="rgb(77,77,77)" stroke-width="53" stroke-linejoin="miter" d="M 2239,8970 L 1513,8970 1513,6160 1520,5698 1532,5196 1517,5219 1494,5253 1429,5342 1282,5528 887,5977 537,5358 1643,4114 2239,4114 2239,8970 Z"/>
        <path fill="none" stroke="rgb(77,77,77)" stroke-width="53" stroke-linejoin="miter" d="M 5577,6541 L 5570,6917 5560,7096 5548,7267 5530,7431 5511,7588 5487,7737 5459,7880 5427,8017 5391,8144 5350,8263 5305,8374 5255,8478 5201,8573 5142,8659 5079,8738 5046,8775 5011,8809 4936,8869 4857,8921 4772,8962 4681,8995 4584,9018 4482,9033 4374,9037 4298,9034 4224,9027 4154,9014 4086,8996 4019,8973 3956,8943 3895,8910 3837,8872 3781,8828 3728,8778 3679,8724 3631,8664 3586,8599 3543,8529 3503,8454 3466,8374 3398,8200 3339,8011 3290,7806 3249,7585 3217,7348 3194,7094 3181,6825 3177,6541 3184,6162 3193,5982 3206,5810 3222,5645 3242,5487 3266,5338 3293,5194 3324,5059 3360,4932 3400,4812 3445,4701 3495,4598 3549,4503 3608,4417 3673,4338 3707,4301 3741,4267 3815,4206 3895,4155 3980,4112 4070,4080 4166,4057 4268,4042 4374,4038 4450,4040 4523,4048 4594,4061 4662,4078 4727,4102 4790,4130 4851,4163 4909,4203 4965,4247 5018,4295 5069,4349 5116,4409 5162,4474 5204,4543 5245,4617 5283,4698 5351,4871 5411,5061 5462,5266 5503,5488 5536,5727 5558,5982 5573,6253 5577,6541 Z"/>
        <path fill="none" stroke="rgb(77,77,77)" stroke-width="53" stroke-linejoin="miter" d="M 3898,6541 L 3904,6930 3913,7106 3924,7269 3938,7418 3955,7555 3976,7678 4000,7790 4013,7841 4028,7888 4043,7932 4061,7973 4079,8011 4100,8044 4121,8075 4143,8103 4168,8128 4193,8148 4220,8166 4248,8181 4278,8192 4309,8201 4341,8205 4374,8207 4407,8205 4439,8201 4469,8192 4498,8181 4526,8166 4553,8148 4579,8128 4603,8103 4626,8077 4646,8046 4667,8011 4686,7974 4703,7933 4720,7889 4735,7842 4749,7793 4774,7683 4796,7558 4814,7422 4829,7273 4841,7109 4849,6933 4856,6541 4849,6152 4841,5976 4829,5813 4814,5663 4796,5525 4774,5400 4749,5289 4735,5238 4720,5191 4703,5146 4686,5105 4667,5067 4646,5033 4626,5001 4603,4973 4579,4948 4553,4928 4526,4909 4498,4894 4469,4882 4439,4875 4407,4869 4374,4868 4341,4869 4309,4875 4278,4882 4248,4894 4220,4909 4193,4928 4168,4948 4143,4973 4121,5001 4100,5033 4079,5067 4061,5105 4043,5146 4028,5191 4013,5238 4000,5289 3976,5400 3955,5525 3938,5663 3924,5813 3913,5976 3904,6152 3898,6541 Z"/>
        <path fill="none" stroke="rgb(77,77,77)" stroke-width="53" stroke-linejoin="miter" d="M 8328,6541 L 8321,6917 8311,7096 8299,7267 8281,7431 8262,7588 8238,7737 8210,7880 8178,8017 8142,8144 8101,8263 8056,8374 8006,8478 7952,8573 7893,8659 7830,8738 7797,8775 7762,8809 7687,8869 7608,8921 7523,8962 7432,8995 7335,9018 7233,9033 7125,9037 7049,9034 6975,9027 6905,9014 6837,8996 6770,8973 6707,8943 6646,8910 6588,8872 6532,8828 6479,8778 6430,8724 6382,8664 6337,8599 6294,8529 6254,8454 6217,8374 6149,8200 6090,8011 6041,7806 6000,7585 5968,7348 5945,7094 5932,6825 5928,6541 5935,6162 5944,5982 5957,5810 5973,5645 5993,5487 6017,5338 6044,5194 6075,5059 6111,4932 6151,4812 6196,4701 6246,4598 6300,4503 6359,4417 6424,4338 6458,4301 6492,4267 6566,4206 6646,4155 6731,4112 6821,4080 6917,4057 7019,4042 7125,4038 7201,4040 7274,4048 7345,4061 7413,4078 7478,4102 7541,4130 7602,4163 7660,4203 7716,4247 7769,4295 7820,4349 7867,4409 7913,4474 7955,4543 7996,4617 8034,4698 8102,4871 8162,5061 8213,5266 8254,5488 8287,5727 8309,5982 8324,6253 8328,6541 Z"/>
        <path fill="none" stroke="rgb(77,77,77)" stroke-width="53" stroke-linejoin="miter" d="M 6649,6541 L 6655,6930 6664,7106 6675,7269 6689,7418 6706,7555 6727,7678 6751,7790 6764,7841 6779,7888 6794,7932 6812,7973 6830,8011 6851,8044 6872,8075 6895,8103 6919,8128 6944,8148 6971,8166 6999,8181 7029,8192 7060,8201 7092,8205 7125,8207 7158,8205 7191,8201 7221,8192 7250,8181 7277,8166 7304,8148 7330,8128 7354,8103 7377,8077 7398,8046 7418,8011 7437,7974 7454,7933 7471,7889 7487,7842 7500,7793 7525,7683 7547,7558 7565,7422 7580,7273 7592,7109 7600,6933 7607,6541 7600,6152 7592,5976 7580,5813 7565,5663 7547,5525 7525,5400 7500,5289 7487,5238 7471,5191 7454,5146 7437,5105 7418,5067 7398,5033 7377,5001 7354,4973 7330,4948 7304,4928 7277,4909 7250,4894 7221,4882 7191,4875 7158,4869 7125,4868 7092,4869 7060,4875 7029,4882 6999,4894 6971,4909 6944,4928 6919,4948 6895,4973 6872,5001 6851,5033 6830,5067 6812,5105 6794,5146 6779,5191 6764,5238 6751,5289 6727,5400 6706,5525 6689,5663 6675,5813 6664,5976 6655,6152 6649,6541 Z"/>
        <path fill="none" stroke="rgb(77,77,77)" stroke-width="53" stroke-linejoin="miter" d="M 9463,4046 L 9562,4052 9608,4061 9653,4071 9696,4086 9739,4102 9779,4122 9818,4146 9856,4172 9892,4201 9926,4235 9959,4270 9991,4310 10020,4351 10049,4396 10076,4444 10102,4496 10125,4548 10168,4664 10203,4789 10233,4923 10256,5068 10272,5223 10282,5387 10285,5563 10282,5739 10273,5904 10257,6059 10237,6204 10209,6340 10174,6466 10135,6582 10112,6636 10089,6689 10063,6737 10036,6784 10007,6826 9976,6866 9943,6903 9908,6935 9871,6965 9834,6992 9794,7015 9751,7036 9708,7053 9663,7068 9616,7078 9567,7087 9463,7093 9368,7087 9322,7078 9278,7068 9235,7053 9194,7036 9154,7015 9116,6992 9079,6965 9043,6935 9010,6903 8977,6866 8946,6826 8917,6784 8889,6737 8862,6689 8837,6636 8813,6582 8772,6466 8736,6340 8707,6204 8684,6059 8668,5904 8658,5739 8655,5563 8658,5387 8667,5223 8682,5068 8704,4923 8731,4789 8764,4664 8802,4548 8824,4496 8848,4444 8872,4396 8899,4351 8928,4310 8958,4270 8990,4235 9025,4201 9060,4172 9098,4146 9137,4122 9178,4102 9221,4086 9266,4071 9312,4061 9361,4052 9463,4046 Z"/>
        <path fill="none" stroke="rgb(77,77,77)" stroke-width="53" stroke-linejoin="miter" d="M 11901,4114 L 9996,8970 9434,8970 11339,4114 11901,4114 Z"/>
        <path fill="none" stroke="rgb(77,77,77)" stroke-width="53" stroke-linejoin="miter" d="M 9468,4740 L 9454,4742 9441,4743 9428,4748 9416,4753 9404,4761 9393,4769 9382,4780 9371,4791 9351,4821 9333,4857 9316,4900 9302,4948 9288,5002 9277,5064 9259,5207 9249,5376 9246,5570 9249,5766 9259,5936 9277,6080 9288,6141 9302,6197 9316,6245 9333,6289 9351,6324 9371,6354 9382,6367 9393,6377 9404,6386 9416,6393 9428,6399 9441,6403 9454,6405 9468,6406 9481,6405 9495,6403 9508,6399 9520,6393 9533,6386 9544,6377 9555,6367 9567,6354 9587,6324 9605,6289 9623,6245 9637,6197 9651,6141 9662,6080 9680,5936 9691,5766 9694,5570 9691,5376 9680,5207 9662,5064 9651,5002 9637,4948 9623,4900 9605,4857 9587,4821 9567,4791 9555,4780 9544,4769 9533,4761 9520,4753 9508,4748 9495,4743 9481,4742 9468,4740 Z"/>
        <path fill="none" stroke="rgb(77,77,77)" stroke-width="53" stroke-linejoin="miter" d="M 11868,5985 L 11966,5990 12013,5999 12057,6009 12101,6024 12143,6040 12183,6061 12223,6084 12260,6111 12296,6140 12330,6173 12363,6209 12396,6248 12425,6289 12453,6335 12480,6383 12506,6434 12529,6487 12573,6602 12608,6727 12638,6862 12660,7006 12676,7162 12686,7326 12689,7501 12686,7677 12677,7842 12662,7998 12641,8143 12613,8279 12579,8405 12539,8520 12517,8576 12493,8627 12467,8677 12440,8722 12411,8765 12380,8804 12347,8841 12313,8873 12275,8904 12237,8930 12198,8954 12155,8974 12112,8992 12067,9006 12020,9017 11971,9025 11868,9031 11772,9025 11726,9017 11682,9006 11639,8992 11599,8974 11558,8954 11520,8930 11484,8904 11447,8873 11414,8841 11381,8804 11350,8765 11321,8722 11293,8675 11266,8627 11242,8574 11218,8520 11176,8405 11140,8279 11111,8143 11088,7998 11073,7842 11062,7677 11059,7501 11062,7326 11072,7162 11086,7006 11108,6862 11135,6727 11168,6602 11206,6487 11228,6434 11252,6383 11277,6335 11304,6289 11333,6248 11363,6209 11395,6173 11429,6140 11464,6111 11502,6084 11542,6061 11582,6040 11625,6024 11670,6009 11717,5999 11765,5990 11868,5985 Z"/>
        <path fill="none" stroke="rgb(77,77,77)" stroke-width="53" stroke-linejoin="miter" d="M 11872,6679 L 11858,6680 11845,6681 11832,6686 11820,6692 11809,6699 11797,6708 11786,6718 11776,6730 11755,6759 11737,6796 11721,6837 11706,6886 11693,6941 11681,7002 11664,7146 11653,7312 11650,7507 11653,7703 11664,7873 11681,8017 11693,8080 11706,8135 11721,8184 11737,8226 11755,8263 11776,8292 11786,8305 11797,8315 11809,8324 11820,8331 11832,8337 11845,8342 11858,8343 11872,8345 11885,8343 11900,8342 11912,8337 11925,8331 11937,8324 11948,8315 11960,8305 11971,8292 11991,8263 12009,8226 12027,8184 12042,8135 12055,8080 12066,8017 12084,7873 12095,7703 12098,7507 12095,7312 12084,7146 12066,7002 12055,6941 12042,6886 12027,6837 12009,6796 11991,6759 11971,6730 11960,6718 11948,6708 11937,6699 11925,6692 11912,6686 11900,6681 11885,6680 11872,6679 Z"/>
       </g>
      </g>
     </g>
    </g>
   </g>
  </g>
 </g>
</svg>