<?xml version="1.0" encoding="UTF-8" standalone="no"?>
<svg
   xmlns:dc="http://purl.org/dc/elements/1.1/"
   xmlns:cc="http://creativecommons.org/ns#"
   xmlns:rdf="http://www.w3.org/1999/02/22-rdf-syntax-ns#"
   xmlns:svg="http://www.w3.org/2000/svg"
   xmlns="http://www.w3.org/2000/svg"
   xmlns:sodipodi="http://sodipodi.sourceforge.net/DTD/sodipodi-0.dtd"
   xmlns:inkscape="http://www.inkscape.org/namespaces/inkscape"
   version="1.1"
   viewBox="0 0 512 512"
   enable-background="new 0 0 512 512"
   id="svg10"
   sodipodi:docname="zoom.svg"
   inkscape:version="1.0.1 (3bc2e813f5, 2020-09-07)">
  <metadata
     id="metadata16">
    <rdf:RDF>
      <cc:Work
         rdf:about="">
        <dc:format>image/svg+xml</dc:format>
        <dc:type
           rdf:resource="http://purl.org/dc/dcmitype/StillImage" />
        <dc:title></dc:title>
      </cc:Work>
    </rdf:RDF>
  </metadata>
  <defs
     id="defs14" />
  <sodipodi:namedview
     pagecolor="#ffffff"
     bordercolor="#666666"
     borderopacity="1"
     objecttolerance="10"
     gridtolerance="10"
     guidetolerance="10"
     inkscape:pageopacity="0"
     inkscape:pageshadow="2"
     inkscape:window-width="2048"
     inkscape:window-height="1077"
     id="namedview12"
     showgrid="false"
     inkscape:zoom="0.60725651"
     inkscape:cx="-311.46815"
     inkscape:cy="99.970522"
     inkscape:window-x="0"
     inkscape:window-y="0"
     inkscape:window-maximized="1"
     inkscape:current-layer="svg10" />
  <g
     id="g859">
    <path
       d="M 495,466.1 385.5,356.7 c 31.2,-37.8 48.2,-84.7 48.2,-134.3 0,-56.5 -22,-109.5 -61.9,-149.5 C 331.9,33 278.8,11 222.3,11 165.8,11 112.8,33 72.8,72.9 c -82.4,82.4 -82.4,216.5 0,298.9 39.9,39.9 93,61.9 149.5,61.9 49.6,0 96.6,-17 134.3,-48.2 L 466.1,495 c 11.5,10.5 23.8,5.1 28.9,0 7.9,-8 7.9,-20.9 0,-28.9 z M 342.9,343 c -32.2,32.2 -75,50 -120.6,50 -45.6,0 -88.4,-17.7 -120.6,-50 -66.5,-66.5 -66.5,-174.7 0,-241.2 32.2,-32.2 75,-49.9 120.6,-49.9 45.6,0 88.4,17.7 120.6,49.9 32.2,32.2 50,75 50,120.6 0,45.5 -17.8,88.4 -50,120.6 z"
       id="path2"
       style="fill:#4d4d4d;fill-opacity:1" />
    <path
       d="m 319.6,202 h -76.9 v -77 c 0,-11.3 -9.1,-20.4 -20.4,-20.4 -11.3,0 -20.4,9.1 -20.4,20.4 v 77 H 125 c -11.3,0 -20.4,9.1 -20.4,20.4 0,11.3 9.1,20.4 20.4,20.4 h 76.9 v 76.9 c 0,11.3 9.1,20.4 20.4,20.4 11.3,0 20.4,-9.1 20.4,-20.4 v -76.9 h 76.9 c 11.3,0 20.4,-9.1 20.4,-20.4 0.1,-11.3 -9.1,-20.4 -20.4,-20.4 z"
       id="path4"
       style="fill:#4d4d4d;fill-opacity:1" />
  </g>
</svg>
