<?xml version="1.0" encoding="UTF-8" standalone="no"?>
<!-- Created with Inkscape (http://www.inkscape.org/) -->

<svg
   xmlns:dc="http://purl.org/dc/elements/1.1/"
   xmlns:cc="http://creativecommons.org/ns#"
   xmlns:rdf="http://www.w3.org/1999/02/22-rdf-syntax-ns#"
   xmlns:svg="http://www.w3.org/2000/svg"
   xmlns="http://www.w3.org/2000/svg"
   xmlns:sodipodi="http://sodipodi.sourceforge.net/DTD/sodipodi-0.dtd"
   xmlns:inkscape="http://www.inkscape.org/namespaces/inkscape"
   width="500"
   height="500"
   viewBox="0 0 500.00001 500.00001"
   id="svg2"
   version="1.1"
   inkscape:version="0.91 r13725"
   sodipodi:docname="markerEllipse.svg">
  <defs
     id="defs4">
    <inkscape:path-effect
       effect="spiro"
       id="path-effect4371"
       is_visible="true" />
    <inkscape:path-effect
       effect="spiro"
       id="path-effect4325"
       is_visible="true" />
    <inkscape:path-effect
       effect="spiro"
       id="path-effect4321"
       is_visible="true" />
    <inkscape:path-effect
       effect="skeletal"
       id="path-effect4317"
       is_visible="true"
       pattern="m 0,557.36216 c 0,-2.76 2.24,-5 5,-5 2.76,0 5,2.24 5,5 0,2.76 -2.24,5 -5,5 -2.76,0 -5,-2.24 -5,-5 z"
       copytype="single_stretched"
       prop_scale="1"
       scale_y_rel="false"
       spacing="0"
       normal_offset="0"
       tang_offset="0"
       prop_units="false"
       vertical_pattern="false"
       fuse_tolerance="0" />
    <inkscape:path-effect
       effect="spiro"
       id="path-effect4315"
       is_visible="true" />
    <inkscape:path-effect
       effect="skeletal"
       id="path-effect4311"
       is_visible="true"
       pattern="m 0,557.36216 c 0,-2.76 2.24,-5 5,-5 2.76,0 5,2.24 5,5 0,2.76 -2.24,5 -5,5 -2.76,0 -5,-2.24 -5,-5 z"
       copytype="single_stretched"
       prop_scale="1"
       scale_y_rel="false"
       spacing="0"
       normal_offset="0"
       tang_offset="0"
       prop_units="false"
       vertical_pattern="false"
       fuse_tolerance="0" />
    <inkscape:path-effect
       effect="spiro"
       id="path-effect4309"
       is_visible="true" />
    <inkscape:path-effect
       effect="skeletal"
       id="path-effect4305"
       is_visible="true"
       pattern="m 66.98396,613.9307 c 0,-2.76 2.24,-5 5,-5 2.76,0 5,2.24 5,5 0,2.76 -2.24,5 -5,5 -2.76,0 -5,-2.24 -5,-5 z"
       copytype="single_stretched"
       prop_scale="1"
       scale_y_rel="false"
       spacing="0"
       normal_offset="0"
       tang_offset="0"
       prop_units="false"
       vertical_pattern="false"
       fuse_tolerance="0" />
    <inkscape:path-effect
       effect="spiro"
       id="path-effect4303"
       is_visible="true" />
    <inkscape:path-effect
       effect="spiro"
       id="path-effect4299"
       is_visible="true" />
    <inkscape:path-effect
       effect="spiro"
       id="path-effect4325-3"
       is_visible="true" />
  </defs>
  <sodipodi:namedview
     id="base"
     pagecolor="#ffffff"
     bordercolor="#666666"
     borderopacity="1.0"
     inkscape:pageopacity="0.0"
     inkscape:pageshadow="2"
     inkscape:zoom="0.7"
     inkscape:cx="274.04427"
     inkscape:cy="290.65251"
     inkscape:document-units="px"
     inkscape:current-layer="layer1"
     showgrid="false"
     units="px"
     inkscape:snap-global="true"
     inkscape:object-paths="false"
     inkscape:object-nodes="true"
     inkscape:snap-bbox="true"
     inkscape:snap-intersection-paths="false"
     inkscape:window-width="1920"
     inkscape:window-height="1025"
     inkscape:window-x="1920"
     inkscape:window-y="0"
     inkscape:window-maximized="1" />
  <metadata
     id="metadata7">
    <rdf:RDF>
      <cc:Work
         rdf:about="">
        <dc:format>image/svg+xml</dc:format>
        <dc:type
           rdf:resource="http://purl.org/dc/dcmitype/StillImage" />
        <dc:title />
      </cc:Work>
    </rdf:RDF>
  </metadata>
  <g
     inkscape:label="Layer 1"
     inkscape:groupmode="layer"
     id="layer1"
     transform="translate(0,-552.36216)">
    <path
       style="color:#000000;font-style:normal;font-variant:normal;font-weight:normal;font-stretch:normal;font-size:medium;line-height:normal;font-family:sans-serif;text-indent:0;text-align:start;text-decoration:none;text-decoration-line:none;text-decoration-style:solid;text-decoration-color:#000000;letter-spacing:normal;word-spacing:normal;text-transform:none;direction:ltr;block-progression:tb;writing-mode:lr-tb;baseline-shift:baseline;text-anchor:start;white-space:normal;clip-rule:nonzero;display:inline;overflow:visible;visibility:visible;opacity:1;isolation:auto;mix-blend-mode:normal;color-interpolation:sRGB;color-interpolation-filters:linearRGB;solid-color:#000000;solid-opacity:1;fill:#e6e6e6;fill-opacity:1;fill-rule:nonzero;stroke:none;stroke-width:40;stroke-linecap:round;stroke-linejoin:round;stroke-miterlimit:4;stroke-dasharray:none;stroke-dashoffset:0;stroke-opacity:1;color-rendering:auto;image-rendering:auto;shape-rendering:auto;text-rendering:auto;enable-background:accumulate"
       d="M 250,577.36218 C 125.97186,577.36207 24.999881,678.33927 25,802.37385 c -6e-6,6.20476 0.263201,12.34838 0.758794,18.42799 L 65.486537,786.95396 C 73.287442,691.71188 152.70112,617.21059 250,617.21067 c 4.74902,0 9.45402,0.18055 14.11163,0.52924 l 38.40666,-32.71935 0.0701,0.07 1.37944,-1.1655 c -17.2977,-4.27781 -35.37068,-6.56295 -53.96778,-6.56294 z m 222.51349,191.58797 -1.14986,1.35812 -0.1148,-0.11675 -36.39294,42.64256 c -4.66212,84.28807 -65.31638,153.27305 -145.527,170.52936 l -37.55058,43.99876 C 374.99007,1026.4006 475.00012,925.81381 475,802.37385 c 10e-6,-11.3555 -0.8537,-22.51451 -2.48651,-33.4237 z"
       id="path5878"
       inkscape:connector-curvature="0" />
    <path
       style="fill:#e6e6e6;fill-rule:evenodd;stroke:none;stroke-width:26.48171997;stroke-linecap:round;stroke-linejoin:miter;stroke-miterlimit:4;stroke-dasharray:none;stroke-opacity:1"
       d="m 395.24922,582.56762 a 14.208924,14.865361 0 0 0 -19.22311,-0.83718 l -102.00901,90.30658 -0.0444,-0.0464 -113.50553,101.25204 127.15375,133.02821 91.99885,-112.87822 0.0726,0.0757 91.08302,-112.61154 a 14.208924,14.865361 0 0 0 -0.80022,-20.11116 l -74.72595,-78.17831 z m -258.60649,211.9288 -55.809539,49.78651 a 4.0650252,4.2528252 0 0 0 -1.063989,5.4448 l 1.653786,3.07899 c 7.778401,14.48064 11.536098,29.39354 11.560245,45.84868 0.01096,7.46422 -0.356715,11.49957 -1.649353,18.19329 -1.594814,8.2585 -3.771843,14.84078 -7.865874,23.6988 -0.07063,0.15272 -0.161238,0.36979 -0.256382,0.72086 l 43.696556,45.71528 2.69407,-1.33323 c 20.51299,-10.15847 42.62898,-11.78668 64.49196,-4.73171 5.76278,1.85963 12.74882,5.07939 18.03463,8.313 l 2.29694,1.40456 a 4.0650252,4.2528252 0 0 0 5.24589,-1.04802 l 0.0237,0.0249 47.61172,-58.4158 -130.66437,-136.70082 z m -75.951409,170.42569 -15.174574,15.87564 -19.652865,20.56075 63.346452,25.1514 15.174576,-15.8756 -43.693589,-45.71219 z"
       id="path4156-7-3"
       inkscape:connector-curvature="0" />
  </g>
</svg>
