<?xml version="1.0" encoding="UTF-8" standalone="no"?>
<!-- Created with Inkscape (http://www.inkscape.org/) -->

<svg
   xmlns:dc="http://purl.org/dc/elements/1.1/"
   xmlns:cc="http://creativecommons.org/ns#"
   xmlns:rdf="http://www.w3.org/1999/02/22-rdf-syntax-ns#"
   xmlns:svg="http://www.w3.org/2000/svg"
   xmlns="http://www.w3.org/2000/svg"
   xmlns:sodipodi="http://sodipodi.sourceforge.net/DTD/sodipodi-0.dtd"
   xmlns:inkscape="http://www.inkscape.org/namespaces/inkscape"
   width="500"
   height="500"
   viewBox="0 0 500.00001 500.00001"
   id="svg4407"
   version="1.1"
   inkscape:version="0.91 r13725"
   sodipodi:docname="textColor.svg">
  <defs
     id="defs4409" />
  <sodipodi:namedview
     id="base"
     pagecolor="#ffffff"
     bordercolor="#666666"
     borderopacity="1.0"
     inkscape:pageopacity="0.0"
     inkscape:pageshadow="2"
     inkscape:zoom="0.7"
     inkscape:cx="-62.640444"
     inkscape:cy="270.61936"
     inkscape:document-units="px"
     inkscape:current-layer="layer1"
     showgrid="false"
     units="px"
     inkscape:object-nodes="true"
     inkscape:object-paths="true"
     inkscape:snap-global="false"
     inkscape:window-width="1920"
     inkscape:window-height="1025"
     inkscape:window-x="1920"
     inkscape:window-y="0"
     inkscape:window-maximized="1" />
  <metadata
     id="metadata4412">
    <rdf:RDF>
      <cc:Work
         rdf:about="">
        <dc:format>image/svg+xml</dc:format>
        <dc:type
           rdf:resource="http://purl.org/dc/dcmitype/StillImage" />
        <dc:title />
      </cc:Work>
    </rdf:RDF>
  </metadata>
  <g
     inkscape:label="Layer 1"
     inkscape:groupmode="layer"
     id="layer1"
     transform="translate(0,-552.36216)">
    <path
       style="opacity:1;fill:#e6e6e6;fill-opacity:1;stroke:none;stroke-width:30;stroke-linecap:round;stroke-linejoin:round;stroke-miterlimit:4;stroke-dasharray:none;stroke-dashoffset:64.99999237;stroke-opacity:1"
       d="m 423.21391,577.36216 c 0,0 -51.83697,95.55905 -51.83697,119.99548 0,24.43641 19.10577,48.757 51.83697,49.91222 32.73118,1.15519 51.83802,-25.47581 51.83802,-49.91222 0,-24.43643 -51.83802,-119.99548 -51.83802,-119.99548 z m 28.50291,89.33826 c 4.00443,10.39286 6.77668,19.38119 6.77668,24.36067 0,18.03734 -13.3751,37.6938 -36.28936,36.8411 -5.25279,-0.19548 -9.99789,-1.29749 -14.20196,-3.0851 26.74884,-7.56982 42.41959,-33.29541 43.71464,-58.11667 z"
       id="rect4986"
       inkscape:connector-curvature="0" />
    <g
       id="layer1-3"
       inkscape:label="Layer 1"
       transform="translate(0.05193,0)"
       style="fill:#e6e6e6">
      <path
         id="text7075"
         transform="translate(0,552.36216)"
         d="M 220.31641,25 25,475 l 69.554688,0 48.126952,-117.44531 214.28516,0 L 405.79688,475 475,475 279.33203,25 220.31641,25 Z m 29.50781,73.248047 87.11914,210.474613 -173.88672,0 86.76758,-210.474613 z"
         style="font-style:normal;font-weight:normal;font-size:674.81884766px;line-height:125%;font-family:sans-serif;letter-spacing:0px;word-spacing:0px;fill:#e6e6e6;fill-opacity:1;stroke:none;stroke-width:1px;stroke-linecap:butt;stroke-linejoin:miter;stroke-opacity:1"
         inkscape:connector-curvature="0" />
    </g>
  </g>
</svg>
